<svg width="658" height="137" viewBox="0 0 658 137" fill="none" xmlns="http://www.w3.org/2000/svg">
<path d="M38.9119 134.419L9.58966 57.5289C8.97494 55.808 8.29875 54.7017 7.56108 54.21C6.82342 53.5953 5.59397 52.9807 3.87275 52.3661L0 51.2598V44.8062H50.1613V51.8129L45.5509 52.1817C44.5674 52.3046 43.7067 52.5505 42.9691 52.9192C42.3544 53.1651 42.047 53.7183 42.047 54.5787C42.047 55.0704 42.1085 55.5621 42.2314 56.0538C42.3544 56.5455 42.4773 57.0372 42.6002 57.5289L57.538 102.151L73.029 58.2665C73.1519 57.7748 73.2749 57.2831 73.3978 56.7914C73.6437 56.2997 73.7667 55.8694 73.7667 55.5007C73.7667 54.6402 73.5208 53.9641 73.029 53.4724C72.5372 52.8578 71.6151 52.489 70.2627 52.3661L64.7302 51.8129V44.8062H95.7122V51.2598L90.9174 52.7349C89.3191 53.2266 88.0282 53.8412 87.0447 54.5787C86.184 55.3163 85.3234 56.8528 84.4628 59.1884L57.1692 134.419H38.9119Z" fill="black"/>
<path d="M141.727 137C127.22 137 115.847 132.759 107.61 124.277C99.4957 115.795 95.4385 104.056 95.4385 89.0592C95.4385 74.7999 99.6801 63.2449 108.163 54.3943C116.769 45.5437 127.957 41.1184 141.727 41.1184C156.235 41.1184 167.545 45.3594 175.66 53.8412C183.897 62.323 188.016 74.0624 188.016 89.0592C188.016 103.319 183.713 114.873 175.106 123.724C166.623 132.575 155.497 137 141.727 137ZM141.727 127.781C147.383 127.781 151.255 125.015 153.345 119.483C155.558 113.829 156.665 103.687 156.665 89.0592C156.665 74.5541 155.558 64.4742 153.345 58.8196C151.255 53.1651 147.383 50.3378 141.727 50.3378C136.072 50.3378 132.137 53.1651 129.924 58.8196C127.834 64.3513 126.789 74.4311 126.789 89.0592C126.789 103.564 127.834 113.644 129.924 119.299C132.137 124.953 136.072 127.781 141.727 127.781Z" fill="black"/>
<path d="M196.63 134.419V128.334L202.531 126.49C204.13 125.998 205.175 125.384 205.666 124.646C206.158 123.908 206.404 122.618 206.404 120.774V27.8425C206.404 25.0153 206.158 23.1099 205.666 22.1265C205.297 21.1431 204.314 20.1597 202.716 19.1763L194.417 13.8291V7.55989L234.435 3.31898L235.911 3.68775V121.696C235.911 123.786 236.157 125.199 236.648 125.937C237.14 126.551 238.247 126.92 239.968 127.043L246.238 127.596V134.419H196.63Z" fill="black"/>
<path d="M279.152 137C271.161 137 265.013 135.095 260.71 131.284C256.53 127.35 254.44 121.757 254.44 114.505C254.44 108.236 257.514 102.827 263.661 98.2786C269.808 93.7304 278.968 90.1655 291.139 87.5841L301.098 85.3715V67.4859C301.098 61.2167 299.991 56.7914 297.778 54.21C295.688 51.5056 292.123 50.1534 287.082 50.1534C285.852 50.1534 284.685 50.2149 283.578 50.3378C282.594 50.4607 281.488 50.7066 280.259 51.0754C280.873 52.3046 281.426 54.0256 281.918 56.2382C282.41 58.3279 282.656 60.3562 282.656 62.323C282.656 66.8712 281.242 70.559 278.414 73.3863C275.71 76.2135 272.144 77.6272 267.718 77.6272C264.522 77.6272 261.94 76.5209 259.973 74.3082C258.006 72.0956 257.022 69.2683 257.022 65.8264C257.022 62.2615 258.006 58.9426 259.973 55.8694C261.94 52.7963 264.706 50.2149 268.271 48.1252C271.837 45.9125 276.017 44.1916 280.812 42.9623C285.73 41.7331 291.078 41.1184 296.856 41.1184C307.552 41.1184 315.851 43.6999 321.752 48.8627C327.654 54.0256 330.604 61.3396 330.604 70.8048V116.902C330.604 119.606 330.85 121.389 331.342 122.249C331.957 123.109 333.063 123.724 334.661 124.093L341.485 125.384V130.915L336.137 132.943C332.325 134.173 328.883 135.156 325.809 135.894C322.736 136.631 320.154 137 318.064 137C313.515 137 309.95 136.017 307.368 134.05C304.786 131.96 303.065 128.764 302.204 124.462C299.008 128.272 295.319 131.345 291.139 133.681C286.959 135.894 282.963 137 279.152 137ZM293.352 122.249C294.582 122.249 295.872 122.065 297.225 121.696C298.7 121.327 299.991 120.897 301.098 120.405V93.4845L296.118 94.9596C291.569 96.1889 288.188 98.0327 285.975 100.491C283.885 102.827 282.84 105.9 282.84 109.711C282.84 113.89 283.701 117.025 285.422 119.114C287.266 121.204 289.91 122.249 293.352 122.249Z" fill="black"/>
<path d="M381.126 137C373.134 137 367.11 134.726 363.053 130.178C358.996 125.629 356.967 118.93 356.967 110.079V56.607H345.718V45.7281L358.996 42.2248L365.819 21.389L386.474 20.467V44.8062H405.284V56.607H386.474V109.526C386.474 113.337 387.334 116.164 389.056 118.008C390.777 119.852 393.482 120.774 397.17 120.774C398.768 120.774 400.49 120.344 402.334 119.483C404.301 118.623 406.083 117.578 407.682 116.349L411.37 120.405C408.051 126.183 403.932 130.424 399.014 133.128C394.219 135.709 388.257 137 381.126 137Z" fill="black"/>
<path d="M438.518 31.1615C433.6 31.1615 429.789 29.8093 427.084 27.105C424.38 24.4006 423.027 20.5899 423.027 15.6729C423.027 10.7559 424.38 6.94527 427.084 4.24092C429.789 1.41364 433.6 0 438.518 0C443.436 0 447.309 1.41364 450.137 4.24092C452.964 6.94527 454.378 10.7559 454.378 15.6729C454.378 20.5899 452.964 24.4006 450.137 27.105C447.309 29.8093 443.436 31.1615 438.518 31.1615ZM415.282 134.419V128.334L420.999 126.49C422.597 125.998 423.642 125.384 424.134 124.646C424.748 123.908 425.056 122.618 425.056 120.774V65.4576C425.056 63.122 424.81 61.4625 424.318 60.4791C423.949 59.3728 422.966 58.1436 421.368 56.7914L416.388 52.3661V45.7281L453.272 41.6716L454.747 42.0404V121.696C454.747 123.663 454.993 125.015 455.485 125.752C455.976 126.367 457.021 126.736 458.62 126.859L465.074 127.596V134.419H415.282Z" fill="black"/>
<path d="M473.255 134.419V128.334L479.156 126.49C480.754 125.998 481.799 125.384 482.291 124.646C482.783 123.908 483.029 122.618 483.029 120.774V27.8425C483.029 25.0153 482.783 23.1099 482.291 22.1265C481.922 21.1431 480.939 20.1597 479.341 19.1763L471.042 13.8291V7.55989L511.06 3.31898L512.536 3.68775V121.696C512.536 123.786 512.781 125.199 513.273 125.937C513.765 126.551 514.872 126.92 516.593 127.043L522.863 127.596V134.419H473.255Z" fill="black"/>
<path d="M576.432 137C561.924 137 550.859 132.882 543.237 124.646C535.737 116.287 531.987 104.179 531.987 88.3217C531.987 74.1853 536.044 62.8147 544.159 54.21C552.396 45.4823 563.154 41.1184 576.432 41.1184C588.111 41.1184 596.902 44.376 602.803 50.891C608.705 57.2831 611.655 66.7483 611.655 79.2867C611.655 80.1471 611.594 81.2535 611.471 82.6057C611.471 83.8349 611.409 84.8798 611.286 85.7402H561.309C561.309 97.1723 562.969 105.531 566.289 110.817C569.731 115.98 575.202 118.561 582.702 118.561C588.111 118.561 592.845 117.455 596.902 115.242C600.959 113.03 604.34 109.772 607.045 105.47L611.102 107.498C608.52 116.717 604.156 123.97 598.008 129.256C591.861 134.419 584.669 137 576.432 137ZM561.678 76.8896H585.468C585.591 76.0292 585.652 75.1687 585.652 74.3082C585.652 73.3248 585.652 72.157 585.652 70.8048C585.652 63.7981 584.73 58.6353 582.886 55.3163C581.165 51.8744 578.46 50.1534 574.772 50.1534C570.592 50.1534 567.395 52.4275 565.182 56.9758C562.969 61.4011 561.801 68.039 561.678 76.8896Z" fill="black"/>
<path d="M641.587 136.447C636.423 136.447 632.428 135.033 629.6 132.206C626.772 129.379 625.358 125.384 625.358 120.221C625.358 114.935 626.772 110.878 629.6 108.051C632.428 105.224 636.423 103.81 641.587 103.81C646.873 103.81 650.931 105.224 653.758 108.051C656.586 110.878 658 114.935 658 120.221C658 125.384 656.525 129.379 653.574 132.206C650.746 135.033 646.751 136.447 641.587 136.447Z" fill="black"/>
</svg>
