<svg width="364" height="279" viewBox="0 0 364 279" fill="none" xmlns="http://www.w3.org/2000/svg">
<path d="M118.688 272.825L29.2501 38.7344C27.3751 33.495 25.3126 30.1268 23.0626 28.6298C20.8126 26.7586 17.0625 24.8873 11.8125 23.0161L0 19.6479V0H153V21.332L138.938 22.4547C135.938 22.829 133.313 23.5775 131.063 24.7002C129.188 25.4487 128.25 27.1328 128.25 29.7525C128.25 31.2495 128.438 32.7465 128.813 34.2435C129.188 35.7404 129.563 37.2374 129.938 38.7344L175.5 174.586L222.751 40.9799C223.126 39.4829 223.501 37.9859 223.876 36.4889C224.626 34.992 225.001 33.6821 225.001 32.5594C225.001 29.9396 224.251 27.8813 222.751 26.3843C221.251 24.5131 218.438 23.3903 214.313 23.0161L197.438 21.332V0H291.938V19.6479L277.313 24.1388C272.438 25.6358 268.501 27.507 265.501 29.7525C262.876 31.998 260.251 36.6761 257.626 43.7867L174.375 272.825H118.688Z" fill="#FE5000"/>
<path d="M313.937 279C298.187 279 286 274.696 277.375 266.089C268.75 257.481 264.437 245.318 264.437 229.6C264.437 213.507 268.75 201.157 277.375 192.549C286 183.942 298.187 179.638 313.937 179.638C330.062 179.638 342.437 183.942 351.062 192.549C359.687 201.157 364 213.507 364 229.6C364 245.318 359.5 257.481 350.5 266.089C341.875 274.696 329.687 279 313.937 279Z" fill="#FE5000"/>
</svg>