<?xml version="1.0" encoding="utf-8"?>
<!-- Generator: Adobe Illustrator 16.0.3, SVG Export Plug-In . SVG Version: 6.00 Build 0)  -->
<!DOCTYPE svg PUBLIC "-//W3C//DTD SVG 1.1//EN" "http://www.w3.org/Graphics/SVG/1.1/DTD/svg11.dtd">
<svg version="1.1" xmlns="http://www.w3.org/2000/svg" xmlns:xlink="http://www.w3.org/1999/xlink" x="0px" y="0px"
	 width="345.946px" height="90.709px" viewBox="0 0 345.946 90.709" enable-background="new 0 0 345.946 90.709"
	 xml:space="preserve">
<g id="Schutzraum">
	<rect fill="none" width="345.946" height="90.709"/>
	<rect fill="none" width="345.946" height="90.709"/>
	<rect fill="none" width="345.946" height="90.709"/>
	<rect fill="none" width="345.946" height="90.709"/>
	<rect fill="none" width="345.946" height="90.709"/>
</g>
<g id="Logo">
	<g>
		<path fill="#9D9D9C" d="M271.129,67.853h4.345v-9.113h2.323c1.75,0,2.505,1.026,2.566,2.716l0.12,4.135
			c0.029,0.844,0.12,1.658,0.543,2.263h4.707v-0.181c-0.814-0.424-0.936-1.6-0.966-3.862c-0.06-4.557-0.513-6.188-3.47-6.579v-0.06
			c2.444-0.514,3.591-2.444,3.591-5.312c0-3.682-2.173-5.553-5.733-5.553h-8.026V67.853z M275.474,49.506h2.053
			c1.961,0,3.018,0.996,3.018,2.987c0,2.323-1.178,3.229-3.26,3.229h-1.811V49.506z"/>
		<path fill="#9D9D9C" d="M207.066,46.307v15.027c0,5.764,3.35,6.941,6.88,6.941s6.881-1.448,6.881-6.941V46.307h-4.346v15.027
			c0,2.143-0.513,3.742-2.535,3.742c-2.021,0-2.534-1.6-2.534-3.742V46.307H207.066z"/>
	</g>
	<polygon fill="#9D9D9C" points="221.89,46.307 221.89,67.852 225.873,67.852 225.873,52.765 225.933,52.765 231.244,67.852 
		236.193,67.852 236.193,46.307 232.209,46.307 232.209,61.063 232.15,61.063 226.899,46.307 	"/>
	<rect x="237.31" y="46.307" fill="#9D9D9C" width="4.345" height="21.544"/>
	<polygon fill="#9D9D9C" points="241.954,46.307 246.902,67.852 252.485,67.852 257.432,46.307 252.937,46.307 249.739,62.24 
		249.649,62.24 246.6,46.307 	"/>
	<polygon fill="#9D9D9C" points="257.82,46.307 257.82,67.852 270.162,67.852 270.162,64.292 262.166,64.292 262.166,58.498 
		269.408,58.498 269.408,54.937 262.166,54.937 262.166,49.868 269.86,49.868 269.86,46.307 	"/>
	<g>
		<path fill="#9D9D9C" d="M285.25,61.123v0.875c0,3.984,1.932,6.277,6.851,6.277c4.707,0,7.482-2.052,7.482-6.609
			c0-2.625-0.845-4.284-4.104-5.703l-3.35-1.447c-1.841-0.785-2.232-1.6-2.232-2.928c0-1.267,0.513-2.505,2.474-2.505
			c1.659,0,2.354,1.177,2.354,3.199h4.164v-0.604c0-4.134-2.808-5.792-6.669-5.792c-4.104,0-6.669,2.142-6.669,6.335
			c0,3.592,1.78,5.191,5.643,6.519c2.867,0.996,3.863,1.72,3.863,3.682c0,1.811-1.269,2.655-2.596,2.655
			c-2.294,0-2.866-1.297-2.866-3.319v-0.634H285.25z"/>
	</g>
	<rect x="300.151" y="46.307" fill="#9D9D9C" width="4.346" height="21.544"/>
	<polygon fill="#9D9D9C" points="327.066,46.307 324.047,54.635 323.988,54.635 321.152,46.307 305.066,46.307 305.066,49.868 
		309.773,49.868 309.773,67.852 314.119,67.852 314.119,49.868 317.784,49.868 321.844,59.373 321.844,67.852 326.191,67.852 
		326.191,59.373 331.774,46.307 	"/>
	<g>
		<path d="M168.895,44.347h-0.276h-6.924v-2.439V22.865v-0.159h6.91h0.014h4.883c3.202-0.001,5.964,2.072,6.864,4.82
			c0.834,2.546,0.121,5.312-1.761,7.281c0.25,0.678,0.494,1.209,0.726,1.818c0.523,1.205,1.001,2.41,1.524,3.6l1.713,4.122h-0.044
			h-7.257c0,0.004-0.059-0.174-0.116-0.247c-0.29-0.638-0.552-1.321-0.842-1.959l-1.756-4.166c-0.697-1.684-1.395-3.275-2.09-4.958
			c0.868-0.024,1.519,0.139,2.357-0.247c0.59-0.29,1.484-1.011,1.507-2.394c-0.022-0.685-0.213-1.204-0.666-1.744
			c-0.455-0.502-1.112-0.874-1.97-0.886c0,0-2.798-0.001-2.797,0V44.347z"/>
		<path d="M244.1,22.706v21.641h-5.622h-1.577v-8.824h-0.673h-4.31h-0.059v8.824c-1.307,0-2.715-0.014-4.021,0h-3.18V27.714h-5.036
			v0.522v1.567v7.127v7.417h-0.058h-7.143v-8.97v-0.348v-7.315h-5.079v7.852v8.781h-7.417c-1.292-3.12-2.655-6.27-3.919-9.376
			c-0.145-0.653-0.29-1.307-0.479-1.945v11.321h-7.433c-1.473-3.425-2.888-6.782-4.356-10.258c-0.509-1.204-0.926-2.184-1.452-3.436
			l-0.072-0.164l-1.144-2.685l-1.639-3.835c-0.144-0.435-0.376-0.828-0.521-1.263h7.415c1.523,3.701,3.062,7.359,4.659,11.002
			l0.044,0.087c-0.059-0.421-0.19-0.958-0.263-1.364v-6.459c0.015-1.031,0-2.207,0-3.266h7.432c0.094,0.236,0.146,0.363,0.218,0.552
			c0.871,2.046,1.699,4.078,2.57,6.11l1.944,4.427c-0.044-0.465-0.146-0.914-0.204-1.364v-9.725h0.596h5.052h18.288h5.196v1.35
			v6.459h0.349h4.692v-7.809h3.755H244.1z"/>
	</g>
	<path fill="#9D9D9C" d="M264.985,36.193l2.093-9.73h0.06l2.092,9.73H264.985z M250.558,36.193l2.091-9.73h0.061l2.092,9.73H250.558
		z M269.805,22.704h-5.396l-4.516,17.059l-4.516-17.059h-5.396l-5.729,21.643h4.547l1-4.577h5.761l0.999,4.577h6.668l1-4.577h5.76
		l1,4.577h4.547L269.805,22.704z"/>
	<g>
		<path fill="#9D9D9C" d="M288.534,30.089c0-3.138-0.452-7.695-6.669-7.695c-6.517,0-7.333,4.647-7.333,11.195
			c0,6.548,0.816,11.195,7.333,11.195c5.703,0,6.85-4.013,6.85-8.66h-4.345c0,4.647-1.146,5.462-2.716,5.462
			c-1.871,0-2.776-1.177-2.776-7.695c0-6.095,0.514-8.298,2.716-8.298c1.962,0,2.596,1.358,2.596,4.496H288.534z"/>
	</g>
	<polygon fill="#9D9D9C" points="289.573,44.347 293.937,44.347 293.937,34.739 299.029,34.739 299.029,44.347 303.394,44.347 
		303.394,22.707 299.029,22.707 299.029,30.981 293.937,30.981 293.937,22.707 289.573,22.707 	"/>
	<polygon fill="#9D9D9C" points="304.34,22.702 304.34,44.347 316.74,44.347 316.74,40.771 308.707,40.771 308.707,34.949 
		315.982,34.949 315.982,31.372 308.707,31.372 308.707,26.279 316.436,26.279 316.436,22.702 	"/>
	<polygon fill="#9D9D9C" points="317.388,22.707 317.388,44.347 321.389,44.347 321.389,29.192 321.449,29.192 326.784,44.347 
		331.754,44.347 331.754,22.707 327.753,22.707 327.753,37.527 327.693,37.527 322.418,22.707 	"/>
	<rect x="147.021" y="22.677" width="1" height="45.355"/>
	<rect x="56.147" y="22.678" fill="#E63323" width="35.229" height="5.247"/>
	<rect x="56.147" y="34.295" fill="#E63323" width="35.229" height="5.247"/>
	<rect x="56.147" y="45.913" fill="#E63323" width="35.229" height="5.247"/>
	<rect x="98.119" y="22.678" fill="#E63323" width="35.229" height="5.247"/>
	<rect x="98.119" y="34.295" fill="#E63323" width="35.229" height="5.247"/>
	<rect x="14.173" y="22.678" fill="#E63323" width="35.229" height="28.483"/>
	<g>
		<path fill="#E63323" d="M130.432,68.05h1.422v-3.329c0-0.186,0.031-0.342,0.092-0.47c0.062-0.127,0.145-0.229,0.248-0.309
			s0.216-0.135,0.34-0.17c0.123-0.034,0.247-0.051,0.371-0.051c0.075,0,0.149,0.001,0.221,0.005
			c0.072,0.003,0.146,0.009,0.222,0.015v-1.359c-0.041-0.008-0.084-0.013-0.129-0.016c-0.045-0.004-0.088-0.006-0.129-0.006
			c-0.295,0-0.546,0.081-0.752,0.243c-0.206,0.161-0.381,0.376-0.526,0.644h-0.02v-0.741h-1.36V68.05z M126.84,64.648v-0.216
			c0-0.131,0.012-0.261,0.036-0.393c0.024-0.13,0.064-0.249,0.119-0.354c0.055-0.107,0.129-0.193,0.221-0.258
			c0.093-0.065,0.212-0.099,0.356-0.099s0.263,0.029,0.355,0.088c0.093,0.059,0.165,0.145,0.217,0.258
			c0.051,0.113,0.087,0.251,0.108,0.412s0.034,0.349,0.041,0.562H126.84z M129.653,65.493v-0.318c0-0.427-0.027-0.813-0.082-1.16
			s-0.158-0.643-0.309-0.887c-0.151-0.243-0.359-0.433-0.624-0.566c-0.264-0.134-0.602-0.201-1.015-0.201
			c-0.481,0-0.865,0.08-1.154,0.237c-0.288,0.159-0.51,0.371-0.665,0.639c-0.154,0.268-0.257,0.574-0.309,0.918
			c-0.051,0.343-0.077,0.7-0.077,1.071c0,0.344,0.016,0.692,0.046,1.046c0.031,0.354,0.115,0.674,0.253,0.959
			c0.137,0.285,0.35,0.517,0.639,0.695c0.288,0.179,0.69,0.268,1.206,0.268c0.68,0,1.178-0.173,1.494-0.52
			c0.316-0.348,0.488-0.844,0.515-1.489h-1.278c-0.041,0.35-0.117,0.61-0.227,0.783c-0.109,0.172-0.285,0.258-0.525,0.258
			c-0.131,0-0.241-0.037-0.33-0.109c-0.089-0.072-0.161-0.168-0.216-0.288c-0.055-0.12-0.095-0.258-0.119-0.412
			c-0.024-0.154-0.036-0.314-0.036-0.479v-0.443H129.653z M122.797,62.506h-0.722v0.968h0.722v3.174
			c0,0.282,0.017,0.516,0.051,0.701c0.034,0.186,0.098,0.335,0.191,0.448c0.092,0.113,0.225,0.194,0.396,0.242
			c0.172,0.048,0.399,0.072,0.681,0.072c0.164,0,0.321-0.007,0.468-0.021c0.148-0.015,0.301-0.027,0.459-0.041v-0.989
			c-0.048,0.007-0.1,0.012-0.155,0.015c-0.055,0.004-0.11,0.005-0.164,0.005c-0.207,0-0.342-0.046-0.407-0.139
			c-0.066-0.093-0.098-0.249-0.098-0.469v-2.999h0.824v-0.968h-0.824v-1.588h-1.422V62.506z M117.295,68.05h1.422v-3.68
			c0-0.61,0.25-0.917,0.752-0.917c0.213,0,0.367,0.057,0.464,0.17c0.096,0.113,0.144,0.314,0.144,0.604v3.823h1.422v-4.112
			c0-0.556-0.122-0.958-0.366-1.206c-0.244-0.247-0.592-0.371-1.046-0.371c-0.309,0-0.584,0.064-0.824,0.191
			c-0.241,0.127-0.437,0.327-0.588,0.603h-0.02v-0.648h-1.36V68.05z M113.703,64.648v-0.216c0-0.131,0.012-0.261,0.036-0.393
			c0.024-0.13,0.064-0.249,0.119-0.354c0.055-0.107,0.129-0.193,0.221-0.258c0.093-0.065,0.212-0.099,0.356-0.099
			c0.144,0,0.263,0.029,0.355,0.088c0.093,0.059,0.165,0.145,0.217,0.258c0.051,0.113,0.087,0.251,0.108,0.412
			s0.034,0.349,0.041,0.562H113.703z M116.517,65.493v-0.318c0-0.427-0.028-0.813-0.083-1.16c-0.055-0.347-0.158-0.643-0.309-0.887
			c-0.151-0.243-0.359-0.433-0.624-0.566c-0.264-0.134-0.602-0.201-1.015-0.201c-0.481,0-0.865,0.08-1.154,0.237
			c-0.288,0.159-0.51,0.371-0.664,0.639c-0.155,0.268-0.258,0.574-0.31,0.918c-0.051,0.343-0.077,0.7-0.077,1.071
			c0,0.344,0.016,0.692,0.046,1.046c0.031,0.354,0.115,0.674,0.253,0.959c0.137,0.285,0.35,0.517,0.639,0.695
			c0.288,0.179,0.69,0.268,1.206,0.268c0.68,0,1.178-0.173,1.494-0.52c0.316-0.348,0.488-0.844,0.515-1.489h-1.278
			c-0.041,0.35-0.117,0.61-0.226,0.783c-0.11,0.172-0.286,0.258-0.526,0.258c-0.131,0-0.241-0.037-0.33-0.109
			s-0.161-0.168-0.216-0.288c-0.055-0.12-0.095-0.258-0.119-0.412s-0.036-0.314-0.036-0.479v-0.443H116.517z M111.567,63.176
			c0-0.269-0.019-0.556-0.057-0.861c-0.037-0.306-0.132-0.591-0.283-0.855c-0.151-0.265-0.38-0.482-0.685-0.654
			c-0.306-0.171-0.723-0.257-1.252-0.257c-0.557,0-1,0.094-1.33,0.282c-0.33,0.189-0.582,0.452-0.757,0.788
			c-0.175,0.337-0.289,0.741-0.34,1.211c-0.052,0.472-0.078,0.984-0.078,1.541s0.026,1.07,0.078,1.541
			c0.051,0.471,0.165,0.874,0.34,1.21c0.175,0.337,0.427,0.601,0.757,0.789c0.33,0.189,0.773,0.283,1.33,0.283
			c0.487,0,0.884-0.079,1.19-0.237c0.305-0.157,0.543-0.372,0.711-0.644s0.283-0.586,0.345-0.943
			c0.062-0.356,0.093-0.734,0.093-1.133h-1.484c0,0.398-0.024,0.719-0.072,0.963s-0.114,0.434-0.196,0.567s-0.18,0.223-0.294,0.268
			c-0.113,0.045-0.235,0.067-0.366,0.067c-0.158,0-0.297-0.033-0.417-0.099c-0.12-0.064-0.22-0.191-0.299-0.381
			c-0.079-0.188-0.137-0.455-0.175-0.799c-0.038-0.343-0.057-0.794-0.057-1.35c0-0.522,0.014-0.964,0.042-1.324
			c0.027-0.361,0.075-0.653,0.144-0.876c0.068-0.223,0.163-0.385,0.283-0.484s0.273-0.149,0.459-0.149
			c0.336,0,0.568,0.122,0.695,0.366c0.128,0.243,0.191,0.634,0.191,1.17H111.567z M99.378,68.05h1.422v-3.68
			c0-0.61,0.25-0.917,0.752-0.917c0.213,0,0.367,0.057,0.464,0.17c0.096,0.113,0.144,0.314,0.144,0.604v3.823h1.422v-4.112
			c0-0.556-0.122-0.958-0.366-1.206c-0.244-0.247-0.592-0.371-1.046-0.371c-0.625,0-1.075,0.237-1.35,0.712h-0.02v-2.381h-1.422
			V68.05z M98.613,64.504c0-0.659-0.167-1.182-0.5-1.565c-0.333-0.385-0.829-0.578-1.489-0.578c-0.33,0-0.632,0.045-0.907,0.134
			c-0.275,0.09-0.512,0.246-0.711,0.47c-0.199,0.224-0.354,0.521-0.464,0.896c-0.11,0.374-0.164,0.847-0.164,1.417
			c0,0.556,0.044,1.022,0.133,1.396c0.09,0.375,0.222,0.674,0.397,0.896c0.175,0.223,0.395,0.383,0.66,0.479
			c0.264,0.096,0.575,0.144,0.932,0.144c0.756,0,1.297-0.196,1.623-0.587c0.327-0.392,0.49-0.952,0.49-1.68h-1.36
			c0,0.452-0.055,0.782-0.165,0.988s-0.285,0.311-0.526,0.311c-0.158,0-0.287-0.037-0.386-0.109c-0.1-0.072-0.177-0.187-0.232-0.345
			s-0.093-0.359-0.113-0.604c-0.021-0.243-0.031-0.536-0.031-0.881c0-0.315,0.01-0.594,0.031-0.835
			c0.02-0.24,0.058-0.438,0.113-0.592C96,63.705,96.08,63.59,96.187,63.51c0.107-0.078,0.249-0.118,0.428-0.118
			c0.13,0,0.238,0.033,0.324,0.098c0.086,0.065,0.151,0.151,0.196,0.257c0.045,0.107,0.076,0.228,0.093,0.361
			c0.017,0.134,0.026,0.266,0.026,0.396H98.613z M91.06,68.05h1.422v-3.329c0-0.186,0.031-0.342,0.093-0.47
			c0.062-0.127,0.145-0.229,0.248-0.309s0.216-0.135,0.34-0.17c0.123-0.034,0.247-0.051,0.371-0.051
			c0.075,0,0.149,0.001,0.221,0.005c0.072,0.003,0.146,0.009,0.222,0.015v-1.359c-0.041-0.008-0.084-0.013-0.129-0.016
			c-0.045-0.004-0.088-0.006-0.129-0.006c-0.295,0-0.546,0.081-0.752,0.243c-0.206,0.161-0.381,0.376-0.526,0.644h-0.02v-0.741
			H91.06V68.05z M88.714,66.369c0,0.158-0.028,0.29-0.082,0.397c-0.056,0.106-0.126,0.193-0.212,0.263
			c-0.086,0.068-0.18,0.118-0.283,0.149c-0.103,0.03-0.203,0.047-0.299,0.047c-0.192,0-0.33-0.076-0.412-0.228
			c-0.083-0.15-0.124-0.333-0.124-0.546c0-0.248,0.062-0.443,0.186-0.588c0.123-0.144,0.329-0.247,0.618-0.309
			c0.089-0.021,0.189-0.054,0.299-0.099c0.11-0.044,0.213-0.104,0.309-0.18V66.369z M87.396,64.205v-0.154
			c0-0.22,0.055-0.395,0.165-0.525c0.11-0.13,0.275-0.196,0.494-0.196c0.241,0,0.411,0.061,0.511,0.181
			c0.099,0.121,0.149,0.287,0.149,0.5c0,0.186-0.041,0.326-0.124,0.423c-0.082,0.096-0.23,0.172-0.443,0.226l-0.804,0.217
			c-0.247,0.069-0.458,0.148-0.633,0.237c-0.176,0.089-0.32,0.201-0.433,0.335c-0.114,0.134-0.198,0.295-0.253,0.484
			c-0.055,0.188-0.082,0.414-0.082,0.675c0,0.186,0.024,0.373,0.072,0.562c0.048,0.189,0.124,0.359,0.227,0.511
			c0.103,0.15,0.24,0.274,0.412,0.371c0.172,0.096,0.381,0.144,0.629,0.144c0.343,0,0.623-0.048,0.839-0.144
			c0.217-0.097,0.408-0.289,0.572-0.577h0.021c0.021,0.096,0.043,0.193,0.067,0.294c0.024,0.099,0.06,0.193,0.108,0.283h1.36
			c-0.068-0.165-0.115-0.32-0.139-0.465c-0.024-0.144-0.036-0.347-0.036-0.607v-2.916c0-0.248-0.025-0.477-0.077-0.686
			c-0.052-0.21-0.149-0.39-0.294-0.542c-0.144-0.15-0.348-0.267-0.613-0.35c-0.264-0.082-0.606-0.124-1.025-0.124
			c-0.268,0-0.521,0.03-0.758,0.088c-0.237,0.059-0.443,0.155-0.618,0.289c-0.175,0.134-0.314,0.312-0.417,0.53
			c-0.103,0.22-0.155,0.488-0.155,0.804v0.134H87.396z M82.576,64.648v-0.216c0-0.131,0.012-0.261,0.036-0.393
			c0.024-0.13,0.064-0.249,0.119-0.354c0.055-0.107,0.129-0.193,0.221-0.258c0.093-0.065,0.212-0.099,0.356-0.099
			s0.263,0.029,0.355,0.088c0.093,0.059,0.165,0.145,0.217,0.258c0.051,0.113,0.087,0.251,0.108,0.412s0.034,0.349,0.041,0.562
			H82.576z M85.39,65.493v-0.318c0-0.427-0.028-0.813-0.083-1.16c-0.055-0.347-0.158-0.643-0.309-0.887
			c-0.151-0.243-0.359-0.433-0.623-0.566c-0.265-0.134-0.603-0.201-1.016-0.201c-0.481,0-0.865,0.08-1.154,0.237
			c-0.288,0.159-0.51,0.371-0.664,0.639c-0.155,0.268-0.258,0.574-0.31,0.918c-0.051,0.343-0.077,0.7-0.077,1.071
			c0,0.344,0.016,0.692,0.046,1.046c0.031,0.354,0.115,0.674,0.253,0.959c0.137,0.285,0.35,0.517,0.639,0.695
			c0.288,0.179,0.69,0.268,1.206,0.268c0.68,0,1.178-0.173,1.494-0.52c0.316-0.348,0.488-0.844,0.515-1.489h-1.278
			c-0.041,0.35-0.117,0.61-0.226,0.783c-0.11,0.172-0.286,0.258-0.526,0.258c-0.131,0-0.241-0.037-0.33-0.109
			s-0.161-0.168-0.216-0.288c-0.055-0.12-0.095-0.258-0.119-0.412s-0.036-0.314-0.036-0.479v-0.443H85.39z M76.503,66.235v0.196
			c0,0.268,0.03,0.51,0.092,0.727c0.062,0.216,0.17,0.401,0.325,0.557c0.154,0.154,0.362,0.272,0.623,0.355
			c0.261,0.082,0.595,0.123,1,0.123c0.295,0,0.57-0.036,0.824-0.108c0.254-0.071,0.473-0.18,0.655-0.324
			c0.182-0.145,0.324-0.326,0.427-0.546c0.103-0.221,0.155-0.475,0.155-0.763c0-0.419-0.093-0.751-0.278-0.995
			c-0.186-0.243-0.502-0.44-0.948-0.592l-0.856-0.289c-0.24-0.075-0.403-0.168-0.489-0.277c-0.086-0.11-0.129-0.234-0.129-0.371
			c0-0.199,0.067-0.35,0.201-0.448c0.134-0.101,0.29-0.15,0.469-0.15c0.233,0,0.397,0.067,0.489,0.201
			c0.093,0.134,0.139,0.345,0.139,0.634h1.278v-0.227c0-0.501-0.154-0.889-0.463-1.164c-0.31-0.275-0.787-0.413-1.433-0.413
			c-0.364,0-0.675,0.045-0.932,0.134c-0.258,0.09-0.469,0.21-0.634,0.361c-0.165,0.151-0.285,0.328-0.361,0.531
			s-0.113,0.417-0.113,0.644c0,0.392,0.099,0.713,0.299,0.963c0.199,0.251,0.494,0.445,0.886,0.583l0.999,0.36
			c0.138,0.055,0.258,0.129,0.361,0.222s0.155,0.229,0.155,0.407c0,0.22-0.066,0.385-0.196,0.495
			c-0.131,0.109-0.306,0.165-0.526,0.165c-0.24,0-0.424-0.074-0.551-0.223c-0.127-0.147-0.191-0.342-0.191-0.581v-0.187H76.503z
			 M73.143,64.648v-0.216c0-0.131,0.012-0.261,0.036-0.393c0.024-0.13,0.064-0.249,0.119-0.354c0.055-0.107,0.128-0.193,0.221-0.258
			c0.093-0.065,0.211-0.099,0.356-0.099c0.144,0,0.262,0.029,0.355,0.088c0.093,0.059,0.165,0.145,0.217,0.258
			c0.051,0.113,0.087,0.251,0.108,0.412c0.02,0.161,0.034,0.349,0.041,0.562H73.143z M75.956,65.493v-0.318
			c0-0.427-0.027-0.813-0.082-1.16c-0.055-0.347-0.158-0.643-0.309-0.887c-0.151-0.243-0.359-0.433-0.624-0.566
			c-0.264-0.134-0.603-0.201-1.015-0.201c-0.481,0-0.865,0.08-1.154,0.237c-0.289,0.159-0.51,0.371-0.665,0.639
			c-0.154,0.268-0.257,0.574-0.309,0.918c-0.051,0.343-0.077,0.7-0.077,1.071c0,0.344,0.015,0.692,0.046,1.046
			c0.031,0.354,0.115,0.674,0.253,0.959c0.137,0.285,0.35,0.517,0.639,0.695c0.288,0.179,0.69,0.268,1.205,0.268
			c0.681,0,1.179-0.173,1.495-0.52c0.316-0.348,0.487-0.844,0.515-1.489h-1.278c-0.041,0.35-0.117,0.61-0.227,0.783
			c-0.11,0.172-0.285,0.258-0.525,0.258c-0.131,0-0.241-0.037-0.33-0.109c-0.089-0.072-0.161-0.168-0.216-0.288
			s-0.095-0.258-0.119-0.412s-0.036-0.314-0.036-0.479v-0.443H75.956z M67.75,61.783h0.701c0.687,0,1.031,0.34,1.031,1.021
			c0,0.397-0.097,0.681-0.289,0.85c-0.192,0.168-0.467,0.252-0.824,0.252H67.75V61.783z M66.266,68.05h1.484v-3.112h0.784
			c0.306,0,0.523,0.082,0.652,0.247c0.129,0.165,0.2,0.392,0.214,0.68l0.04,1.412c0.007,0.144,0.021,0.283,0.042,0.417
			s0.069,0.253,0.146,0.356h1.626v-0.063c-0.137-0.075-0.225-0.216-0.263-0.422c-0.038-0.207-0.06-0.505-0.067-0.897
			c-0.007-0.392-0.025-0.721-0.056-0.988c-0.031-0.269-0.088-0.49-0.17-0.665c-0.083-0.175-0.2-0.31-0.351-0.402
			c-0.151-0.093-0.354-0.156-0.608-0.19v-0.021c0.419-0.089,0.728-0.29,0.928-0.603c0.199-0.313,0.299-0.717,0.299-1.212
			c0-0.639-0.172-1.113-0.516-1.427c-0.343-0.313-0.824-0.469-1.442-0.469h-2.742V68.05z M59.281,69.863h0.577
			c0.33,0,0.603-0.024,0.82-0.072c0.216-0.049,0.401-0.149,0.556-0.304c0.155-0.155,0.309-0.43,0.464-0.825
			c0.154-0.395,0.252-0.723,0.293-0.983l1.34-5.173h-1.422l-0.721,3.833h-0.021l-0.824-3.833h-1.484l1.556,5.544
			c-0.021,0.247-0.088,0.439-0.201,0.576c-0.114,0.138-0.301,0.206-0.562,0.206c-0.123,0-0.247-0.01-0.371-0.03V69.863z
			 M56.89,62.506v0.617h-0.02c-0.138-0.289-0.313-0.487-0.526-0.598c-0.213-0.109-0.419-0.165-0.618-0.165
			c-0.385,0-0.692,0.086-0.922,0.258c-0.231,0.172-0.406,0.394-0.526,0.665s-0.199,0.575-0.237,0.912
			c-0.038,0.336-0.057,0.666-0.057,0.989c0,1.01,0.143,1.729,0.428,2.159c0.285,0.429,0.709,0.644,1.273,0.644
			c0.226,0,0.444-0.062,0.654-0.185c0.21-0.124,0.386-0.289,0.531-0.495h0.02v0.731c0,0.288-0.058,0.527-0.175,0.717
			c-0.117,0.188-0.319,0.282-0.608,0.282c-0.089,0-0.173-0.014-0.252-0.041c-0.079-0.027-0.153-0.064-0.222-0.112
			c-0.144-0.104-0.216-0.244-0.216-0.424h-1.361c0,0.475,0.164,0.841,0.49,1.099c0.326,0.257,0.792,0.386,1.396,0.386
			c0.831,0,1.424-0.177,1.778-0.531c0.354-0.354,0.531-0.9,0.531-1.643v-5.266H56.89z M55.432,64.51
			c0.017-0.259,0.053-0.465,0.108-0.618c0.055-0.155,0.131-0.267,0.227-0.335c0.096-0.069,0.223-0.104,0.381-0.104
			c0.282,0,0.476,0.142,0.583,0.422c0.106,0.282,0.159,0.761,0.159,1.434c0,0.232-0.012,0.448-0.036,0.644
			c-0.024,0.196-0.065,0.362-0.123,0.5c-0.059,0.138-0.138,0.245-0.237,0.324c-0.1,0.079-0.225,0.119-0.377,0.119
			c-0.151,0-0.273-0.04-0.365-0.119c-0.093-0.079-0.165-0.185-0.217-0.319c-0.051-0.134-0.086-0.287-0.103-0.459
			c-0.017-0.171-0.026-0.354-0.026-0.546C55.406,65.081,55.416,64.768,55.432,64.51 M50.595,68.05h1.422v-3.329
			c0-0.186,0.031-0.342,0.093-0.47c0.062-0.127,0.144-0.229,0.247-0.309s0.217-0.135,0.34-0.17c0.124-0.034,0.248-0.051,0.371-0.051
			c0.076,0,0.15,0.001,0.222,0.005c0.072,0.003,0.146,0.009,0.221,0.015v-1.359c-0.041-0.008-0.084-0.013-0.128-0.016
			c-0.045-0.004-0.088-0.006-0.129-0.006c-0.296,0-0.546,0.081-0.753,0.243c-0.206,0.161-0.381,0.376-0.525,0.644h-0.021v-0.741
			h-1.36V68.05z M47.004,64.648v-0.216c0-0.131,0.012-0.261,0.036-0.393c0.024-0.13,0.063-0.249,0.118-0.354
			c0.055-0.107,0.129-0.193,0.222-0.258c0.093-0.065,0.211-0.099,0.355-0.099c0.145,0,0.263,0.029,0.356,0.088
			s0.165,0.145,0.216,0.258c0.052,0.113,0.088,0.251,0.108,0.412c0.021,0.161,0.035,0.349,0.042,0.562H47.004z M49.817,65.493
			v-0.318c0-0.427-0.028-0.813-0.082-1.16c-0.056-0.347-0.159-0.643-0.31-0.887c-0.151-0.243-0.359-0.433-0.623-0.566
			c-0.265-0.134-0.603-0.201-1.015-0.201c-0.481,0-0.866,0.08-1.154,0.237c-0.289,0.159-0.51,0.371-0.665,0.639
			c-0.155,0.268-0.258,0.574-0.309,0.918c-0.052,0.343-0.077,0.7-0.077,1.071c0,0.344,0.015,0.692,0.046,1.046
			c0.031,0.354,0.115,0.674,0.252,0.959c0.138,0.285,0.351,0.517,0.639,0.695c0.289,0.179,0.691,0.268,1.206,0.268
			c0.68,0,1.178-0.173,1.494-0.52c0.316-0.348,0.488-0.844,0.516-1.489h-1.278c-0.042,0.35-0.117,0.61-0.227,0.783
			c-0.11,0.172-0.285,0.258-0.526,0.258c-0.13,0-0.24-0.037-0.329-0.109c-0.09-0.072-0.162-0.168-0.217-0.288
			c-0.055-0.12-0.094-0.258-0.118-0.412c-0.024-0.154-0.036-0.314-0.036-0.479v-0.443H49.817z M40.594,68.05h1.422v-3.68
			c0-0.61,0.251-0.917,0.752-0.917c0.213,0,0.368,0.057,0.464,0.17c0.096,0.113,0.144,0.314,0.144,0.604v3.823h1.422v-4.112
			c0-0.556-0.122-0.958-0.365-1.206c-0.244-0.247-0.593-0.371-1.046-0.371c-0.31,0-0.585,0.064-0.825,0.191
			c-0.24,0.127-0.436,0.327-0.587,0.603h-0.021v-0.648h-1.36V68.05z M35.644,60.691v7.358h4.215v-1.217h-2.731v-1.979h2.474v-1.216
			h-2.474v-1.731h2.628v-1.216H35.644z M27.361,60.691v7.358h1.36v-5.153h0.021l1.813,5.153h1.69v-7.358h-1.36v5.039h-0.021
			l-1.793-5.039H27.361z M22.965,63.113c0.024-0.344,0.073-0.625,0.145-0.845c0.072-0.22,0.175-0.38,0.309-0.479
			c0.134-0.1,0.311-0.149,0.531-0.149c0.219,0,0.396,0.05,0.53,0.149c0.134,0.1,0.237,0.26,0.31,0.479
			c0.072,0.22,0.12,0.501,0.144,0.845c0.024,0.343,0.036,0.762,0.036,1.257s-0.012,0.916-0.036,1.263
			c-0.024,0.347-0.072,0.629-0.144,0.845c-0.073,0.217-0.176,0.375-0.31,0.474c-0.134,0.101-0.311,0.15-0.53,0.15
			c-0.22,0-0.397-0.05-0.531-0.15c-0.134-0.099-0.237-0.257-0.309-0.474c-0.072-0.216-0.121-0.498-0.145-0.845
			s-0.036-0.768-0.036-1.263S22.941,63.456,22.965,63.113 M21.523,65.911c0.051,0.471,0.165,0.874,0.34,1.21
			c0.175,0.337,0.427,0.601,0.757,0.789c0.33,0.189,0.773,0.283,1.33,0.283c0.556,0,0.999-0.094,1.329-0.283
			c0.33-0.188,0.582-0.452,0.757-0.789c0.176-0.336,0.289-0.739,0.341-1.21c0.051-0.471,0.077-0.984,0.077-1.541
			s-0.026-1.069-0.077-1.541c-0.052-0.47-0.165-0.874-0.341-1.211c-0.175-0.336-0.427-0.599-0.757-0.788
			c-0.33-0.188-0.773-0.282-1.329-0.282c-0.557,0-1,0.094-1.33,0.282c-0.33,0.189-0.582,0.452-0.757,0.788
			c-0.175,0.337-0.289,0.741-0.34,1.211c-0.052,0.472-0.078,0.984-0.078,1.541S21.471,65.44,21.523,65.911 M19.308,68.05h1.36
			v-1.608h-1.36V68.05z M14.163,60.691v7.358h4.215v-1.217h-2.731v-1.979h2.473v-1.216h-2.473v-1.731h2.628v-1.216H14.163z"/>
	</g>
</g>
</svg>
