<?xml version="1.0" encoding="UTF-8" standalone="no"?>
<!-- Created with Inkscape (http://www.inkscape.org/) -->

<svg
   version="1.1"
   id="svg2"
   width="879.07422"
   height="568.4519"
   viewBox="0 0 879.07422 568.4519"
   xmlns="http://www.w3.org/2000/svg"
   xmlns:svg="http://www.w3.org/2000/svg">
  <defs
     id="defs6">
    <clipPath
       clipPathUnits="userSpaceOnUse"
       id="clipPath20">
      <path
         d="M 48.903125,66.196805 H 992.26312 V 528.71495 H 48.903125 Z"
         id="path18" />
    </clipPath>
    <clipPath
       clipPathUnits="userSpaceOnUse"
       id="clipPath30">
      <path
         d="M 48.903125,66.196805 H 992.26312 V 528.71495 H 48.903125 Z"
         id="path28" />
    </clipPath>
    <clipPath
       clipPathUnits="userSpaceOnUse"
       id="clipPath50">
      <path
         d="M 48.903125,66.196805 H 992.26312 V 528.71495 H 48.903125 Z"
         id="path48" />
    </clipPath>
    <clipPath
       clipPathUnits="userSpaceOnUse"
       id="clipPath70">
      <path
         d="M 48.903125,66.196805 H 992.26312 V 528.71495 H 48.903125 Z"
         id="path68" />
    </clipPath>
    <clipPath
       clipPathUnits="userSpaceOnUse"
       id="clipPath90">
      <path
         d="M 48.903125,66.196805 H 992.26312 V 528.71495 H 48.903125 Z"
         id="path88" />
    </clipPath>
    <clipPath
       clipPathUnits="userSpaceOnUse"
       id="clipPath110">
      <path
         d="M 48.903125,66.196805 H 992.26312 V 528.71495 H 48.903125 Z"
         id="path108" />
    </clipPath>
    <clipPath
       clipPathUnits="userSpaceOnUse"
       id="clipPath136">
      <path
         d="M 48.903125,66.196805 H 992.26312 V 528.71495 H 48.903125 Z"
         id="path134" />
    </clipPath>
    <clipPath
       clipPathUnits="userSpaceOnUse"
       id="clipPath156">
      <path
         d="M 48.903125,66.196805 H 992.26312 V 528.71495 H 48.903125 Z"
         id="path154" />
    </clipPath>
    <clipPath
       clipPathUnits="userSpaceOnUse"
       id="clipPath176">
      <path
         d="M 48.903125,66.196805 H 992.26312 V 528.71495 H 48.903125 Z"
         id="path174" />
    </clipPath>
    <clipPath
       clipPathUnits="userSpaceOnUse"
       id="clipPath196">
      <path
         d="M 48.903125,66.196805 H 992.26312 V 528.71495 H 48.903125 Z"
         id="path194" />
    </clipPath>
    <clipPath
       clipPathUnits="userSpaceOnUse"
       id="clipPath216">
      <path
         d="M 48.903125,66.196805 H 992.26312 V 528.71495 H 48.903125 Z"
         id="path214" />
    </clipPath>
    <clipPath
       clipPathUnits="userSpaceOnUse"
       id="clipPath236">
      <path
         d="M 48.903125,66.196805 H 992.26312 V 528.71495 H 48.903125 Z"
         id="path234" />
    </clipPath>
    <clipPath
       clipPathUnits="userSpaceOnUse"
       id="clipPath256">
      <path
         d="M 48.903125,66.196805 H 992.26312 V 528.71495 H 48.903125 Z"
         id="path254" />
    </clipPath>
    <clipPath
       clipPathUnits="userSpaceOnUse"
       id="clipPath276">
      <path
         d="M 48.903125,66.196805 H 992.26312 V 528.71495 H 48.903125 Z"
         id="path274" />
    </clipPath>
    <clipPath
       clipPathUnits="userSpaceOnUse"
       id="clipPath302">
      <path
         d="M 48.903125,66.196805 H 992.26312 V 528.71495 H 48.903125 Z"
         id="path300" />
    </clipPath>
    <clipPath
       clipPathUnits="userSpaceOnUse"
       id="clipPath312">
      <path
         d="M 48.903125,66.196805 H 992.26312 V 528.71495 H 48.903125 Z"
         id="path310" />
    </clipPath>
    <clipPath
       clipPathUnits="userSpaceOnUse"
       id="clipPath322">
      <path
         d="M 48.903125,66.196805 H 992.26312 V 528.71495 H 48.903125 Z"
         id="path320" />
    </clipPath>
    <clipPath
       clipPathUnits="userSpaceOnUse"
       id="clipPath332">
      <path
         d="M 48.903125,66.196805 H 992.26312 V 528.71495 H 48.903125 Z"
         id="path330" />
    </clipPath>
    <clipPath
       clipPathUnits="userSpaceOnUse"
       id="clipPath342">
      <path
         d="M 48.903125,66.196805 H 992.26312 V 528.71495 H 48.903125 Z"
         id="path340" />
    </clipPath>
    <clipPath
       clipPathUnits="userSpaceOnUse"
       id="clipPath352">
      <path
         d="M 48.903125,66.196805 H 992.26312 V 528.71495 H 48.903125 Z"
         id="path350" />
    </clipPath>
    <clipPath
       clipPathUnits="userSpaceOnUse"
       id="clipPath362">
      <path
         d="M 48.903125,66.196805 H 992.26312 V 528.71495 H 48.903125 Z"
         id="path360" />
    </clipPath>
    <clipPath
       clipPathUnits="userSpaceOnUse"
       id="clipPath372">
      <path
         d="M 48.903125,66.196805 H 992.26312 V 528.71495 H 48.903125 Z"
         id="path370" />
    </clipPath>
  </defs>
  <g
     id="g8"
     transform="matrix(1.3333333,0,0,-1.3333333,-377.95276,681.83771)">
    <path
       d="M 0,0 H 999.46312 V 568.0712 H 0 Z"
       style="fill:#000000;fill-opacity:1;fill-rule:nonzero;stroke:none"
       id="path10" />
    <path
       d="M 48.903125,66.196805 H 992.26312 V 528.71495 H 48.903125 Z"
       style="fill:#1a1a1a;fill-opacity:1;fill-rule:nonzero;stroke:none"
       id="path12" />
    <g
       id="g14">
      <g
         id="g16"
         clip-path="url(#clipPath20)">
        <path
           d="m 661.59789,253.40938 v 0 l 5.7557,33.47171 5.75571,16.88068 5.7557,-4.52765 5.75571,20.83531 5.7557,22.43685 5.75571,5.28984 5.7557,-9.63346 5.75571,-9.09474 5.7557,18.403 5.75571,32.84835 5.7557,9.58106 5.75571,3.99909 5.7557,21.55225 5.75571,27.88434 5.7557,6.53789 5.7557,-2.99895 5.75571,-18.816 5.75571,-47.64717 5.7557,-3.39417 5.7557,-12.62747 5.75571,19.36516 5.7557,-9.65404 5.75571,-6.93215 5.7557,21.77768 5.75571,-11.2401 5.7557,-25.01722 5.75571,-6.56046 5.7557,1.46946 5.75571,28.12128 5.7557,-12.86502 5.75571,10.63021 5.7557,-22.31293 5.7557,34.91514 5.75571,26.72946 5.7557,32.20213 5.75571,15.29478 5.7557,24.21014 5.75571,3.07587 5.7557,15.99565 5.75571,4.09622 5.7557,-37.09577 5.75571,-20.30611 5.7557,-16.13784 5.75571,25.01686 5.7557,-15.83298 5.75571,-3.05144 5.7557,25.1297 5.75571,-12.02642 5.7557,24.29213 5.7557,20.03812 v -392.53633 0 l -5.7557,-13.08659 -5.7557,-4.874373 -5.75571,17.409933 -5.7557,21.25262 -5.75571,5.90505 -5.7557,-12.60925 -5.75571,2.06594 -5.7557,14.62209 -5.75571,-8.68748 -5.7557,-11.56518 -5.75571,11.92677 -5.7557,20.74426 -5.75571,10.94849 -5.7557,3.71766 -5.75571,23.07361 -5.7557,-16.05228 -5.75571,2.09734 -5.7557,38.50676 -5.7557,-16.26804 -5.75571,14.28533 -5.7557,-21.43524 -5.75571,-8.88026 -5.7557,-12.53878 -5.75571,19.26223 -5.7557,-9.43615 -5.75571,-3.32844 -5.7557,0.86859 -5.75571,-20.01975 -5.7557,-6.08236 -5.75571,9.92235 -5.7557,-8.50234 -5.7557,30.30011 -5.75571,-18.79275 -5.75571,-21.83271 -5.7557,18.06273 -5.7557,19.98928 -5.75571,-15.57185 -5.7557,21.28741 -5.75571,-21.92545 -5.7557,13.69328 -5.75571,17.14618 -5.7557,5.54668 -5.75571,-22.93213 -5.7557,-17.58357 -5.75571,15.22 -5.7557,22.27644 -5.75571,-5.09458 -5.7557,8.59604 -5.75571,18.98654 z"
           style="fill:#808080;fill-opacity:0.2;fill-rule:nonzero;stroke:#808080;stroke-width:1;stroke-linecap:butt;stroke-linejoin:round;stroke-miterlimit:10;stroke-dasharray:none;stroke-opacity:0.2"
           id="path22" />
      </g>
    </g>
    <g
       id="g24">
      <g
         id="g26"
         clip-path="url(#clipPath30)">
        <path
           d="M 175.05481,66.196805 V 528.71495"
           style="fill:none;stroke:#808080;stroke-width:0.8;stroke-linecap:square;stroke-linejoin:round;stroke-miterlimit:10;stroke-dasharray:none;stroke-opacity:0.3"
           id="path32" />
      </g>
    </g>
    <g
       id="g34">
      <path
         d="m 175.05481,66.196805 v -3.5"
         style="fill:#ffffff;fill-opacity:1;fill-rule:nonzero;stroke:#ffffff;stroke-width:0.8;stroke-linecap:butt;stroke-linejoin:round;stroke-miterlimit:10;stroke-dasharray:none;stroke-opacity:1"
         id="path36" />
      <g
         id="g38"
         transform="rotate(45,51.793247,207.98642)">
        <text
           xml:space="preserve"
           transform="scale(1,-1)"
           style="font-variant:normal;font-weight:normal;font-size:10px;font-family:'DejaVu Sans';-inkscape-font-specification:DejaVuSans;writing-mode:lr-tb;fill:#ffffff;fill-opacity:1;fill-rule:nonzero;stroke:none"
           id="text42"><tspan
             x="0 6.3600001 12.72 19.08 25.440001 29.049999 35.41"
             y="0"
             id="tspan40">2025-04</tspan></text>
      </g>
    </g>
    <g
       id="g44">
      <g
         id="g46"
         clip-path="url(#clipPath50)">
        <path
           d="M 347.72595,66.196805 V 528.71495"
           style="fill:none;stroke:#808080;stroke-width:0.8;stroke-linecap:square;stroke-linejoin:round;stroke-miterlimit:10;stroke-dasharray:none;stroke-opacity:0.3"
           id="path52" />
      </g>
    </g>
    <g
       id="g54">
      <path
         d="m 347.72595,66.196805 v -3.5"
         style="fill:#ffffff;fill-opacity:1;fill-rule:nonzero;stroke:#ffffff;stroke-width:0.8;stroke-linecap:butt;stroke-linejoin:round;stroke-miterlimit:10;stroke-dasharray:none;stroke-opacity:1"
         id="path56" />
      <g
         id="g58"
         transform="rotate(45,138.12882,416.41893)">
        <text
           xml:space="preserve"
           transform="scale(1,-1)"
           style="font-variant:normal;font-weight:normal;font-size:10px;font-family:'DejaVu Sans';-inkscape-font-specification:DejaVuSans;writing-mode:lr-tb;fill:#ffffff;fill-opacity:1;fill-rule:nonzero;stroke:none"
           id="text62"><tspan
             x="0 6.3600001 12.72 19.08 25.440001 29.049999 35.41"
             y="0"
             id="tspan60">2025-05</tspan></text>
      </g>
    </g>
    <g
       id="g64">
      <g
         id="g66"
         clip-path="url(#clipPath70)">
        <path
           d="M 526.1528,66.196805 V 528.71495"
           style="fill:none;stroke:#808080;stroke-width:0.8;stroke-linecap:square;stroke-linejoin:round;stroke-miterlimit:10;stroke-dasharray:none;stroke-opacity:0.3"
           id="path72" />
      </g>
    </g>
    <g
       id="g74">
      <path
         d="m 526.1528,66.196805 v -3.5"
         style="fill:#ffffff;fill-opacity:1;fill-rule:nonzero;stroke:#ffffff;stroke-width:0.8;stroke-linecap:butt;stroke-linejoin:round;stroke-miterlimit:10;stroke-dasharray:none;stroke-opacity:1"
         id="path76" />
      <g
         id="g78"
         transform="rotate(45,227.34224,631.79918)">
        <text
           xml:space="preserve"
           transform="scale(1,-1)"
           style="font-variant:normal;font-weight:normal;font-size:10px;font-family:'DejaVu Sans';-inkscape-font-specification:DejaVuSans;writing-mode:lr-tb;fill:#ffffff;fill-opacity:1;fill-rule:nonzero;stroke:none"
           id="text82"><tspan
             x="0 6.3600001 12.72 19.08 25.440001 29.049999 35.41"
             y="0"
             id="tspan80">2025-06</tspan></text>
      </g>
    </g>
    <g
       id="g84">
      <g
         id="g86"
         clip-path="url(#clipPath90)">
        <path
           d="M 698.82394,66.196805 V 528.71495"
           style="fill:none;stroke:#808080;stroke-width:0.8;stroke-linecap:square;stroke-linejoin:round;stroke-miterlimit:10;stroke-dasharray:none;stroke-opacity:0.3"
           id="path92" />
      </g>
    </g>
    <g
       id="g94">
      <path
         d="m 698.82394,66.196805 v -3.5"
         style="fill:#ffffff;fill-opacity:1;fill-rule:nonzero;stroke:#ffffff;stroke-width:0.8;stroke-linecap:butt;stroke-linejoin:round;stroke-miterlimit:10;stroke-dasharray:none;stroke-opacity:1"
         id="path96" />
      <g
         id="g98"
         transform="rotate(45,313.67781,840.23169)">
        <text
           xml:space="preserve"
           transform="scale(1,-1)"
           style="font-variant:normal;font-weight:normal;font-size:10px;font-family:'DejaVu Sans';-inkscape-font-specification:DejaVuSans;writing-mode:lr-tb;fill:#ffffff;fill-opacity:1;fill-rule:nonzero;stroke:none"
           id="text102"><tspan
             x="0 6.3600001 12.72 19.08 25.440001 29.049999 35.41"
             y="0"
             id="tspan100">2025-07</tspan></text>
      </g>
    </g>
    <g
       id="g104">
      <g
         id="g106"
         clip-path="url(#clipPath110)">
        <path
           d="M 877.25078,66.196805 V 528.71495"
           style="fill:none;stroke:#808080;stroke-width:0.8;stroke-linecap:square;stroke-linejoin:round;stroke-miterlimit:10;stroke-dasharray:none;stroke-opacity:0.3"
           id="path112" />
      </g>
    </g>
    <g
       id="g114">
      <path
         d="m 877.25078,66.196805 v -3.5"
         style="fill:#ffffff;fill-opacity:1;fill-rule:nonzero;stroke:#ffffff;stroke-width:0.8;stroke-linecap:butt;stroke-linejoin:round;stroke-miterlimit:10;stroke-dasharray:none;stroke-opacity:1"
         id="path116" />
      <g
         id="g118"
         transform="rotate(45,402.89123,1055.6119)">
        <text
           xml:space="preserve"
           transform="scale(1,-1)"
           style="font-variant:normal;font-weight:normal;font-size:10px;font-family:'DejaVu Sans';-inkscape-font-specification:DejaVuSans;writing-mode:lr-tb;fill:#ffffff;fill-opacity:1;fill-rule:nonzero;stroke:none"
           id="text122"><tspan
             x="0 6.3600001 12.72 19.08 25.440001 29.049999 35.41"
             y="0"
             id="tspan120">2025-08</tspan></text>
      </g>
      <g
         id="g124"
         transform="translate(506.23937,9.7)">
        <text
           xml:space="preserve"
           transform="scale(1,-1)"
           style="font-variant:normal;font-weight:normal;font-size:12px;font-family:'DejaVu Sans';-inkscape-font-specification:DejaVuSans;writing-mode:lr-tb;fill:#ffffff;fill-opacity:1;fill-rule:nonzero;stroke:none"
           id="text128"><tspan
             x="0 9.2399998 16.596001 21.299999"
             y="0"
             id="tspan126">Date</tspan></text>
      </g>
    </g>
    <g
       id="g130">
      <g
         id="g132"
         clip-path="url(#clipPath136)">
        <path
           d="M 48.903125,92.29803 H 992.26312"
           style="fill:none;stroke:#808080;stroke-width:0.8;stroke-linecap:square;stroke-linejoin:round;stroke-miterlimit:10;stroke-dasharray:none;stroke-opacity:0.3"
           id="path138" />
      </g>
    </g>
    <g
       id="g140">
      <path
         d="m 48.903125,92.29803 h -3.5"
         style="fill:#ffffff;fill-opacity:1;fill-rule:nonzero;stroke:#ffffff;stroke-width:0.8;stroke-linecap:butt;stroke-linejoin:round;stroke-miterlimit:10;stroke-dasharray:none;stroke-opacity:1"
         id="path142" />
      <g
         id="g144"
         transform="translate(29.184375,88.501155)">
        <text
           xml:space="preserve"
           transform="scale(1,-1)"
           style="font-variant:normal;font-weight:normal;font-size:10px;font-family:'DejaVu Sans';-inkscape-font-specification:DejaVuSans;writing-mode:lr-tb;fill:#ffffff;fill-opacity:1;fill-rule:nonzero;stroke:none"
           id="text148"><tspan
             x="0 6.3600001"
             y="0"
             id="tspan146">90</tspan></text>
      </g>
    </g>
    <g
       id="g150">
      <g
         id="g152"
         clip-path="url(#clipPath156)">
        <path
           d="M 48.903125,150.32521 H 992.26312"
           style="fill:none;stroke:#808080;stroke-width:0.8;stroke-linecap:square;stroke-linejoin:round;stroke-miterlimit:10;stroke-dasharray:none;stroke-opacity:0.3"
           id="path158" />
      </g>
    </g>
    <g
       id="g160">
      <path
         d="m 48.903125,150.32521 h -3.5"
         style="fill:#ffffff;fill-opacity:1;fill-rule:nonzero;stroke:#ffffff;stroke-width:0.8;stroke-linecap:butt;stroke-linejoin:round;stroke-miterlimit:10;stroke-dasharray:none;stroke-opacity:1"
         id="path162" />
      <g
         id="g164"
         transform="translate(22.825,146.52833)">
        <text
           xml:space="preserve"
           transform="scale(1,-1)"
           style="font-variant:normal;font-weight:normal;font-size:10px;font-family:'DejaVu Sans';-inkscape-font-specification:DejaVuSans;writing-mode:lr-tb;fill:#ffffff;fill-opacity:1;fill-rule:nonzero;stroke:none"
           id="text168"><tspan
             x="0 6.3600001 12.72"
             y="0"
             id="tspan166">100</tspan></text>
      </g>
    </g>
    <g
       id="g170">
      <g
         id="g172"
         clip-path="url(#clipPath176)">
        <path
           d="M 48.903125,208.35239 H 992.26312"
           style="fill:none;stroke:#808080;stroke-width:0.8;stroke-linecap:square;stroke-linejoin:round;stroke-miterlimit:10;stroke-dasharray:none;stroke-opacity:0.3"
           id="path178" />
      </g>
    </g>
    <g
       id="g180">
      <path
         d="m 48.903125,208.35239 h -3.5"
         style="fill:#ffffff;fill-opacity:1;fill-rule:nonzero;stroke:#ffffff;stroke-width:0.8;stroke-linecap:butt;stroke-linejoin:round;stroke-miterlimit:10;stroke-dasharray:none;stroke-opacity:1"
         id="path182" />
      <g
         id="g184"
         transform="translate(22.825,204.55551)">
        <text
           xml:space="preserve"
           transform="scale(1,-1)"
           style="font-variant:normal;font-weight:normal;font-size:10px;font-family:'DejaVu Sans';-inkscape-font-specification:DejaVuSans;writing-mode:lr-tb;fill:#ffffff;fill-opacity:1;fill-rule:nonzero;stroke:none"
           id="text188"><tspan
             x="0 6.3600001 12.72"
             y="0"
             id="tspan186">110</tspan></text>
      </g>
    </g>
    <g
       id="g190">
      <g
         id="g192"
         clip-path="url(#clipPath196)">
        <path
           d="M 48.903125,266.37957 H 992.26312"
           style="fill:none;stroke:#808080;stroke-width:0.8;stroke-linecap:square;stroke-linejoin:round;stroke-miterlimit:10;stroke-dasharray:none;stroke-opacity:0.3"
           id="path198" />
      </g>
    </g>
    <g
       id="g200">
      <path
         d="m 48.903125,266.37957 h -3.5"
         style="fill:#ffffff;fill-opacity:1;fill-rule:nonzero;stroke:#ffffff;stroke-width:0.8;stroke-linecap:butt;stroke-linejoin:round;stroke-miterlimit:10;stroke-dasharray:none;stroke-opacity:1"
         id="path202" />
      <g
         id="g204"
         transform="translate(22.825,262.58269)">
        <text
           xml:space="preserve"
           transform="scale(1,-1)"
           style="font-variant:normal;font-weight:normal;font-size:10px;font-family:'DejaVu Sans';-inkscape-font-specification:DejaVuSans;writing-mode:lr-tb;fill:#ffffff;fill-opacity:1;fill-rule:nonzero;stroke:none"
           id="text208"><tspan
             x="0 6.3600001 12.72"
             y="0"
             id="tspan206">120</tspan></text>
      </g>
    </g>
    <g
       id="g210">
      <g
         id="g212"
         clip-path="url(#clipPath216)">
        <path
           d="M 48.903125,324.40675 H 992.26312"
           style="fill:none;stroke:#808080;stroke-width:0.8;stroke-linecap:square;stroke-linejoin:round;stroke-miterlimit:10;stroke-dasharray:none;stroke-opacity:0.3"
           id="path218" />
      </g>
    </g>
    <g
       id="g220">
      <path
         d="m 48.903125,324.40675 h -3.5"
         style="fill:#ffffff;fill-opacity:1;fill-rule:nonzero;stroke:#ffffff;stroke-width:0.8;stroke-linecap:butt;stroke-linejoin:round;stroke-miterlimit:10;stroke-dasharray:none;stroke-opacity:1"
         id="path222" />
      <g
         id="g224"
         transform="translate(22.825,320.60987)">
        <text
           xml:space="preserve"
           transform="scale(1,-1)"
           style="font-variant:normal;font-weight:normal;font-size:10px;font-family:'DejaVu Sans';-inkscape-font-specification:DejaVuSans;writing-mode:lr-tb;fill:#ffffff;fill-opacity:1;fill-rule:nonzero;stroke:none"
           id="text228"><tspan
             x="0 6.3600001 12.72"
             y="0"
             id="tspan226">130</tspan></text>
      </g>
    </g>
    <g
       id="g230">
      <g
         id="g232"
         clip-path="url(#clipPath236)">
        <path
           d="M 48.903125,382.43393 H 992.26312"
           style="fill:none;stroke:#808080;stroke-width:0.8;stroke-linecap:square;stroke-linejoin:round;stroke-miterlimit:10;stroke-dasharray:none;stroke-opacity:0.3"
           id="path238" />
      </g>
    </g>
    <g
       id="g240">
      <path
         d="m 48.903125,382.43393 h -3.5"
         style="fill:#ffffff;fill-opacity:1;fill-rule:nonzero;stroke:#ffffff;stroke-width:0.8;stroke-linecap:butt;stroke-linejoin:round;stroke-miterlimit:10;stroke-dasharray:none;stroke-opacity:1"
         id="path242" />
      <g
         id="g244"
         transform="translate(22.825,378.63705)">
        <text
           xml:space="preserve"
           transform="scale(1,-1)"
           style="font-variant:normal;font-weight:normal;font-size:10px;font-family:'DejaVu Sans';-inkscape-font-specification:DejaVuSans;writing-mode:lr-tb;fill:#ffffff;fill-opacity:1;fill-rule:nonzero;stroke:none"
           id="text248"><tspan
             x="0 6.3600001 12.72"
             y="0"
             id="tspan246">140</tspan></text>
      </g>
    </g>
    <g
       id="g250">
      <g
         id="g252"
         clip-path="url(#clipPath256)">
        <path
           d="M 48.903125,440.46111 H 992.26312"
           style="fill:none;stroke:#808080;stroke-width:0.8;stroke-linecap:square;stroke-linejoin:round;stroke-miterlimit:10;stroke-dasharray:none;stroke-opacity:0.3"
           id="path258" />
      </g>
    </g>
    <g
       id="g260">
      <path
         d="m 48.903125,440.46111 h -3.5"
         style="fill:#ffffff;fill-opacity:1;fill-rule:nonzero;stroke:#ffffff;stroke-width:0.8;stroke-linecap:butt;stroke-linejoin:round;stroke-miterlimit:10;stroke-dasharray:none;stroke-opacity:1"
         id="path262" />
      <g
         id="g264"
         transform="translate(22.825,436.66424)">
        <text
           xml:space="preserve"
           transform="scale(1,-1)"
           style="font-variant:normal;font-weight:normal;font-size:10px;font-family:'DejaVu Sans';-inkscape-font-specification:DejaVuSans;writing-mode:lr-tb;fill:#ffffff;fill-opacity:1;fill-rule:nonzero;stroke:none"
           id="text268"><tspan
             x="0 6.3600001 12.72"
             y="0"
             id="tspan266">150</tspan></text>
      </g>
    </g>
    <g
       id="g270">
      <g
         id="g272"
         clip-path="url(#clipPath276)">
        <path
           d="M 48.903125,498.48829 H 992.26312"
           style="fill:none;stroke:#808080;stroke-width:0.8;stroke-linecap:square;stroke-linejoin:round;stroke-miterlimit:10;stroke-dasharray:none;stroke-opacity:0.3"
           id="path278" />
      </g>
    </g>
    <g
       id="g280">
      <path
         d="m 48.903125,498.48829 h -3.5"
         style="fill:#ffffff;fill-opacity:1;fill-rule:nonzero;stroke:#ffffff;stroke-width:0.8;stroke-linecap:butt;stroke-linejoin:round;stroke-miterlimit:10;stroke-dasharray:none;stroke-opacity:1"
         id="path282" />
      <g
         id="g284"
         transform="translate(22.825,494.69142)">
        <text
           xml:space="preserve"
           transform="scale(1,-1)"
           style="font-variant:normal;font-weight:normal;font-size:10px;font-family:'DejaVu Sans';-inkscape-font-specification:DejaVuSans;writing-mode:lr-tb;fill:#ffffff;fill-opacity:1;fill-rule:nonzero;stroke:none"
           id="text288"><tspan
             x="0 6.3600001 12.72"
             y="0"
             id="tspan286">160</tspan></text>
      </g>
      <g
         id="g290"
         transform="rotate(90,-128.04981,144.37481)">
        <text
           xml:space="preserve"
           transform="scale(1,-1)"
           style="font-variant:normal;font-weight:normal;font-size:12px;font-family:'DejaVu Sans';-inkscape-font-specification:DejaVuSans;writing-mode:lr-tb;fill:#ffffff;fill-opacity:1;fill-rule:nonzero;stroke:none"
           id="text294"><tspan
             x="0 7.0328751 11.964875 15.300875 21.900875 29.280874 33.096874 37.776875 45.408875"
             y="0"
             id="tspan292">Price ($)</tspan></text>
      </g>
    </g>
    <g
       id="g296">
      <g
         id="g298"
         clip-path="url(#clipPath302)">
        <path
           d="m 91.783125,158.97209 5.755705,-16.08185 5.7557,-4.24639 5.75571,-3.32869 5.7557,-8.50467 5.75571,-1.23918 5.7557,5.04466 5.75571,21.70707 5.7557,2.6153 5.75571,3.59763 5.7557,-0.28772 5.75571,-21.98403 5.7557,0.26596 5.75571,1.24886 5.7557,28.53664 5.7557,-1.69769 5.75571,4.18035 5.7557,0.18307 5.75571,-13.40015 5.7557,13.96862 5.75571,9.61512 5.7557,10.24565 5.75571,-10.64536 5.7557,17.68666 5.75571,-16.93595 5.7557,7.76281 5.75571,27.65733 5.7557,-12.13071 5.75571,-6.53377 5.7557,1.87428 5.75571,-5.69649 5.7557,-18.68014 5.7557,1.43157 5.75571,-12.25186 5.7557,6.20871 5.75571,-10.41752 5.7557,18.83721 5.75571,-8.90938 5.7557,-3.2572 5.75571,10.28203 5.7557,-14.30356 5.75571,3.28144 5.7557,16.13961 5.75571,-19.02487 5.7557,2.7768 5.75571,3.68456 5.7557,9.95182 5.75571,-14.43676 5.7557,-15.08562 5.7557,6.61877 5.75571,4.06139 5.75571,3.54163 5.7557,4.70065 5.7557,-7.52937 5.75571,3.33068 5.7557,4.07122 5.75571,-7.93791 5.7557,22.58622 5.75571,6.4124 5.7557,-14.11743 5.75571,8.54027 5.7557,-11.33477 5.75571,10.07124 5.7557,14.78446 5.75571,-9.65546 5.7557,12.50034 5.75571,5.82426 5.7557,11.07676 5.7557,25.15911 5.75571,-2.62339 5.7557,-9.41182 5.75571,-11.0697 5.7557,-9.92831 5.75571,-0.34598 5.7557,4.9907 5.75571,4.20084 5.7557,11.3532 5.75571,0.82973 5.7557,19.82628 5.75571,-2.91568 5.7557,37.46561 5.75571,9.64446 5.7557,-11.67704 5.7557,-14.5307 5.75571,7.42411 5.7557,-2.4443 5.75571,10.72833 5.7557,7.45974 5.75571,-0.32888 5.7557,-11.47342 5.75571,-20.75692 5.7557,-5.45402 5.75571,12.36854 5.7557,3.6691 5.75571,-16.70035 5.7557,3.04252 5.75571,5.96098 5.7557,-11.51776 5.7557,2.76705 5.75571,1.47571"
           style="fill:none;stroke:#ffffff;stroke-width:2;stroke-linecap:square;stroke-linejoin:round;stroke-miterlimit:10;stroke-dasharray:none;stroke-opacity:0.9"
           id="path304" />
      </g>
    </g>
    <g
       id="g306">
      <g
         id="g308"
         clip-path="url(#clipPath312)">
        <path
           d="M 661.59789,66.196805 V 528.71495"
           style="fill:none;stroke:#00bfff;stroke-width:2;stroke-linecap:butt;stroke-linejoin:round;stroke-miterlimit:10;stroke-dasharray:7.4, 3.2;stroke-dashoffset:0;stroke-opacity:0.8"
           id="path314" />
      </g>
    </g>
    <g
       id="g316">
      <g
         id="g318"
         clip-path="url(#clipPath322)">
        <path
           d="m 661.59789,253.40938 5.7557,14.4228 5.75571,18.15033 5.7557,-16.69981 5.75571,24.00226 5.7557,16.45434 5.75571,-11.14069 5.7557,5.75671 5.75571,4.96467 5.7557,0.57461 5.75571,16.98573 5.7557,28.82548 5.75571,0.27627 5.7557,28.22296 5.75571,21.93278 5.7557,5.44127 5.7557,4.22087 5.75571,-26.98084 5.75571,-34.34227 5.7557,3.78542 5.7557,-19.12293 5.75571,-0.75606 5.7557,-11.79404 5.75571,-39.44695 5.7557,7.66585 5.75571,-8.81417 5.7557,1.83241 5.75571,-19.24245 5.7557,-7.00731 5.75571,33.20074 5.7557,2.99317 5.75571,12.56977 5.7557,-29.40755 5.7557,53.81086 5.75571,45.02677 5.7557,35.55948 5.75571,22.78274 5.7557,0.56452 5.75571,12.73451 5.7557,30.66195 5.75571,-18.93693 5.7557,-13.16665 5.75571,-49.44307 5.7557,-21.6604 5.75571,46.12694 5.7557,-9.71642 5.75571,-9.19201 5.7557,9.41558 5.75571,-47.82636 5.7557,26.83614 5.7557,37.36269"
           style="fill:none;stroke:#fe5000;stroke-width:1.5;stroke-linecap:square;stroke-linejoin:round;stroke-miterlimit:10;stroke-dasharray:none;stroke-opacity:0.7"
           id="path324" />
      </g>
    </g>
    <g
       id="g326">
      <g
         id="g328"
         clip-path="url(#clipPath332)">
        <path
           d="m 661.59789,253.40938 5.7557,24.48726 5.75571,-22.73122 5.7557,-6.7958 5.75571,19.28925 5.7557,-10.51851 5.75571,7.24722 5.7557,12.57881 5.75571,-14.51075 5.7557,-0.52411 5.75571,-51.66806 5.7557,-14.97999 5.75571,-3.35147 5.7557,-18.1352 5.75571,24.09614 5.7557,-21.42031 5.7557,-6.16493 5.75571,2.30702 5.75571,22.00993 5.7557,-22.15309 5.7557,18.12586 5.75571,0.54277 5.7557,-15.32433 5.75571,7.64226 5.7557,3.57347 5.75571,-9.39685 5.7557,1.50101 5.75571,-5.92057 5.7557,2.22058 5.75571,11.29063 5.7557,27.22803 5.75571,-21.65386 5.7557,37.37894 5.7557,-35.76026 5.75571,-2.297 5.7557,10.80602 5.75571,5.49098 5.7557,-11.10006 5.75571,-3.41704 5.7557,-8.63826 5.75571,-10.3338 5.7557,15.65959 5.75571,7.01807 5.7557,-12.73611 5.75571,17.18182 5.7557,6.32933 5.75571,16.37604 5.7557,13.18767 5.75571,-16.88223 5.7557,-11.06694 5.7557,15.52846"
           style="fill:none;stroke:#c800ff;stroke-width:1.5;stroke-linecap:square;stroke-linejoin:round;stroke-miterlimit:10;stroke-dasharray:none;stroke-opacity:0.7"
           id="path334" />
      </g>
    </g>
    <g
       id="g336">
      <g
         id="g338"
         clip-path="url(#clipPath342)">
        <path
           d="m 661.59789,253.40938 5.7557,-30.26185 5.75571,-19.80391 5.7557,-10.43879 5.75571,19.17059 5.7557,26.50964 5.75571,-7.30028 5.7557,-6.73609 5.75571,5.05278 5.7557,0.66802 5.75571,17.28879 5.7557,-9.33616 5.75571,18.14624 5.7557,-4.15174 5.75571,17.00562 5.7557,-4.94991 5.7557,-11.82193 5.75571,38.49126 5.75571,23.05974 5.7557,-39.00352 5.7557,-8.93107 5.75571,25.74804 5.7557,-25.74986 5.75571,16.90714 5.7557,15.17327 5.75571,-15.34981 5.7557,0.28968 5.75571,-46.64863 5.7557,38.06498 5.75571,-6.51422 5.7557,18.64029 5.75571,14.8403 5.7557,33.1499 5.7557,-10.45122 5.75571,5.64471 5.7557,14.80114 5.75571,23.42023 5.7557,31.9747 5.75571,-13.0502 5.7557,-18.22605 5.75571,38.42137 5.7557,-59.3094 5.75571,43.71768 5.7557,-8.28403 5.75571,0.42245 5.7557,-19.49322 5.75571,-0.84922 5.7557,37.45981 5.75571,24.17248 5.7557,16.2147 5.7557,3.48738"
           style="fill:none;stroke:#f0c9a5;stroke-width:1.5;stroke-linecap:square;stroke-linejoin:round;stroke-miterlimit:10;stroke-dasharray:none;stroke-opacity:0.7"
           id="path344" />
      </g>
    </g>
    <g
       id="g346">
      <g
         id="g348"
         clip-path="url(#clipPath352)">
        <path
           d="m 661.59789,253.40938 5.7557,-13.75448 5.75571,3.66963 5.7557,0.25149 5.75571,1.66522 5.7557,-12.93569 5.75571,0.45145 5.7557,8.40812 5.75571,24.95719 5.7557,17.28514 5.75571,40.06667 5.7557,-15.15006 5.75571,17.13343 5.7557,3.757 5.75571,44.93887 5.7557,-17.65066 5.7557,-18.09279 5.75571,-12.71201 5.75571,-44.80628 5.7557,-10.48684 5.7557,-15.06502 5.75571,2.99923 5.7557,6.84294 5.75571,38.04178 5.7557,20.51473 5.75571,-12.82346 5.7557,-19.81529 5.75571,10.71752 5.7557,-29.24173 5.75571,39.35979 5.7557,26.99218 5.75571,-11.1422 5.7557,-40.53539 5.7557,30.63612 5.75571,-2.66908 5.7557,29.54338 5.75571,-39.73851 5.7557,-14.24611 5.75571,0.17133 5.7557,1.16286 5.75571,-10.72833 5.7557,14.84384 5.75571,-26.02755 5.7557,-3.33004 5.75571,2.90525 5.7557,12.40922 5.75571,17.57182 5.7557,-28.5254 5.75571,-37.66185 5.7557,29.9631 5.7557,8.23371"
           style="fill:none;stroke:#fe5000;stroke-width:1.5;stroke-linecap:square;stroke-linejoin:round;stroke-miterlimit:10;stroke-dasharray:none;stroke-opacity:0.7"
           id="path354" />
      </g>
    </g>
    <g
       id="g356">
      <g
         id="g358"
         clip-path="url(#clipPath362)">
        <path
           d="m 661.59789,253.40938 5.7557,1.78985 5.75571,22.09085 5.7557,2.6963 5.75571,17.39799 5.7557,16.03949 5.75571,2.8488 5.7557,-16.2545 5.75571,-4.08489 5.7557,24.00212 5.75571,14.83544 5.7557,-7.22607 5.75571,-5.65855 5.7557,-29.50152 5.75571,24.22754 5.7557,15.57459 5.7557,-2.23842 5.75571,3.80415 5.75571,-39.31308 5.7557,-8.27681 5.7557,23.36474 5.75571,17.9471 5.7557,6.38239 5.75571,-0.069 5.7557,15.44794 5.75571,-5.32228 5.7557,-32.58011 5.75571,0.0863 5.7557,7.93269 5.75571,22.13028 5.7557,-28.98731 5.75571,-2.21064 5.7557,-1.28263 5.7557,-21.6625 5.75571,9.66745 5.7557,15.01834 5.75571,-5.72184 5.7557,42.08167 5.75571,-6.71574 5.7557,-9.46652 5.75571,-10.04405 5.7557,-17.26468 5.75571,-11.58262 5.7557,-29.76638 5.75571,-3.67322 5.7557,1.35144 5.75571,-46.34932 5.7557,-1.77474 5.75571,0.98726 5.7557,10.15377 5.7557,24.06196"
           style="fill:none;stroke:#c800ff;stroke-width:1.2;stroke-linecap:square;stroke-linejoin:round;stroke-miterlimit:10;stroke-dasharray:none;stroke-opacity:0.5"
           id="path364" />
      </g>
    </g>
    <g
       id="g366">
      <g
         id="g368"
         clip-path="url(#clipPath372)">
        <path
           d="m 661.59789,253.40938 5.7557,-9.11013 5.75571,-7.69327 5.7557,-8.38447 5.75571,-3.73564 5.7557,-35.06804 5.75571,-21.89698 5.7557,20.09728 5.75571,25.13316 5.7557,-3.43681 5.75571,9.59796 5.7557,5.53014 5.75571,51.22767 5.7557,20.60301 5.75571,-1.83235 5.7557,-17.34914 5.7557,-29.08785 5.75571,4.14054 5.75571,-13.17129 5.7557,-24.94802 5.7557,-10.74696 5.75571,-18.15263 5.7557,28.92784 5.75571,16.18753 5.7557,0.35197 5.75571,27.97163 5.7557,2.02911 5.75571,-16.46024 5.7557,30.05551 5.75571,11.53738 5.7557,-21.1557 5.75571,-3.36875 5.7557,-17.43791 5.7557,-27.34784 5.75571,18.5235 5.7557,39.03485 5.75571,-29.57007 5.7557,12.20272 5.75571,-13.34071 5.7557,-9.73981 5.75571,-11.86992 5.7557,-17.35447 5.75571,1.46161 5.7557,-16.50287 5.75571,5.88954 5.7557,-0.55155 5.75571,-4.42675 5.7557,-18.13168 5.75571,-11.09837 5.7557,15.39874 5.7557,10.69993"
           style="fill:none;stroke:#f0c9a5;stroke-width:1.2;stroke-linecap:square;stroke-linejoin:round;stroke-miterlimit:10;stroke-dasharray:none;stroke-opacity:0.5"
           id="path374" />
      </g>
    </g>
    <g
       id="g376">
      <path
         d="M 48.903125,66.196805 V 528.71495"
         style="fill:none;stroke:#ffffff;stroke-width:0.8;stroke-linecap:square;stroke-linejoin:miter;stroke-miterlimit:10;stroke-dasharray:none;stroke-opacity:1"
         id="path378" />
      <path
         d="M 992.26312,66.196805 V 528.71495"
         style="fill:none;stroke:#ffffff;stroke-width:0.8;stroke-linecap:square;stroke-linejoin:miter;stroke-miterlimit:10;stroke-dasharray:none;stroke-opacity:1"
         id="path380" />
      <path
         d="M 48.903125,66.196805 H 992.26312"
         style="fill:none;stroke:#ffffff;stroke-width:0.8;stroke-linecap:square;stroke-linejoin:miter;stroke-miterlimit:10;stroke-dasharray:none;stroke-opacity:1"
         id="path382" />
      <path
         d="M 48.903125,528.71495 H 992.26312"
         style="fill:none;stroke:#ffffff;stroke-width:0.8;stroke-linecap:square;stroke-linejoin:miter;stroke-miterlimit:10;stroke-dasharray:none;stroke-opacity:1"
         id="path384" />
      <g
         id="g386"
         transform="translate(409.91906,548.71495)">
        <text
           xml:space="preserve"
           transform="scale(1,-1)"
           style="font-variant:normal;font-weight:bold;font-size:16px;font-family:'DejaVu Sans';-inkscape-font-specification:DejaVuSans-Bold;writing-mode:lr-tb;fill:#ffffff;fill-opacity:1;fill-rule:nonzero;stroke:none"
           id="text390"><tspan
             x="0 11.728 19.615999 25.104 34.591999 45.439999 51.007999 61.295376 72.287376 80.175377 91.023376 100.51138 111.31138 120.83138 128.47937 134.04738 144.97537 156.36737 165.88737 176.73538 193.40738 204.86337 210.35138"
             y="0"
             id="tspan388">Price Forecast Ensemble</tspan></text>
      </g>
      <path
         d="M 55.903125,418.01182 H 169.55937 c 1.33334,0 2,0.66667 2,2 v 101.70313 c 0,1.33333 -0.66666,2 -2,2 H 55.903125 c -1.333333,0 -2,-0.66667 -2,-2 V 420.01182 c 0,-1.33333 0.666667,-2 2,-2 z"
         style="fill:#2a2a2a;fill-opacity:0.8;fill-rule:nonzero;stroke:#cccccc;stroke-width:1;stroke-linecap:butt;stroke-linejoin:miter;stroke-miterlimit:10;stroke-dasharray:none;stroke-opacity:0.8"
         id="path392" />
      <path
         d="m 57.903125,515.6212 h 10 10"
         style="fill:none;stroke:#ffffff;stroke-width:2;stroke-linecap:square;stroke-linejoin:round;stroke-miterlimit:10;stroke-dasharray:none;stroke-opacity:0.9"
         id="path394" />
      <g
         id="g396"
         transform="translate(85.903125,512.1212)">
        <text
           xml:space="preserve"
           transform="scale(1,-1)"
           style="font-variant:normal;font-weight:normal;font-size:10px;font-family:'DejaVu Sans';-inkscape-font-specification:DejaVuSans;writing-mode:lr-tb;fill:#ffffff;fill-opacity:1;fill-rule:nonzero;stroke:none"
           id="text400"><tspan
             x="0 7.52 10.3 15.51 19.43 25.549999 29.66 32.439999 37.939999 44.07 46.849998 50.029999 55.888126 59.998123 62.778126 68.278122 74.428123"
             y="0"
             id="tspan398">Historical Prices</tspan></text>
      </g>
      <path
         d="m 57.903125,500.94932 h 10 10"
         style="fill:none;stroke:#00bfff;stroke-width:2;stroke-linecap:butt;stroke-linejoin:round;stroke-miterlimit:10;stroke-dasharray:7.4, 3.2;stroke-dashoffset:0;stroke-opacity:0.8"
         id="path402" />
      <g
         id="g404"
         transform="translate(85.903125,497.44932)">
        <text
           xml:space="preserve"
           transform="scale(1,-1)"
           style="font-variant:normal;font-weight:normal;font-size:10px;font-family:'DejaVu Sans';-inkscape-font-specification:DejaVuSans;writing-mode:lr-tb;fill:#ffffff;fill-opacity:1;fill-rule:nonzero;stroke:none"
           id="text408"><tspan
             x="0 6.98 13.32 17.258125 21.149376 27.299376 33.639374 37.559376 40.739376 46.552502 49.3325 59.072498"
             y="0"
             id="tspan406">Current Time</tspan></text>
      </g>
      <path
         d="m 57.903125,486.27745 h 10 10"
         style="fill:none;stroke:#fe5000;stroke-width:1.5;stroke-linecap:square;stroke-linejoin:round;stroke-miterlimit:10;stroke-dasharray:none;stroke-opacity:0.7"
         id="path410" />
      <g
         id="g412"
         transform="translate(85.903125,482.77745)">
        <text
           xml:space="preserve"
           transform="scale(1,-1)"
           style="font-variant:normal;font-weight:normal;font-size:10px;font-family:'DejaVu Sans';-inkscape-font-specification:DejaVuSans;writing-mode:lr-tb;fill:#ffffff;fill-opacity:1;fill-rule:nonzero;stroke:none"
           id="text416"><tspan
             x="0 5.40625 11.52625 15.4175 21.567499 27.067499 33.197498 38.407501 42.327499 45.5075"
             y="0"
             id="tspan414">Forecast 1</tspan></text>
      </g>
      <path
         d="m 57.903125,471.60557 h 10 10"
         style="fill:none;stroke:#c800ff;stroke-width:1.5;stroke-linecap:square;stroke-linejoin:round;stroke-miterlimit:10;stroke-dasharray:none;stroke-opacity:0.7"
         id="path418" />
      <g
         id="g420"
         transform="translate(85.903125,468.10557)">
        <text
           xml:space="preserve"
           transform="scale(1,-1)"
           style="font-variant:normal;font-weight:normal;font-size:10px;font-family:'DejaVu Sans';-inkscape-font-specification:DejaVuSans;writing-mode:lr-tb;fill:#ffffff;fill-opacity:1;fill-rule:nonzero;stroke:none"
           id="text424"><tspan
             x="0 5.40625 11.52625 15.4175 21.567499 27.067499 33.197498 38.407501 42.327499 45.5075"
             y="0"
             id="tspan422">Forecast 2</tspan></text>
      </g>
      <path
         d="m 57.903125,456.9337 h 10 10"
         style="fill:none;stroke:#f0c9a5;stroke-width:1.5;stroke-linecap:square;stroke-linejoin:round;stroke-miterlimit:10;stroke-dasharray:none;stroke-opacity:0.7"
         id="path426" />
      <g
         id="g428"
         transform="translate(85.903125,453.4337)">
        <text
           xml:space="preserve"
           transform="scale(1,-1)"
           style="font-variant:normal;font-weight:normal;font-size:10px;font-family:'DejaVu Sans';-inkscape-font-specification:DejaVuSans;writing-mode:lr-tb;fill:#ffffff;fill-opacity:1;fill-rule:nonzero;stroke:none"
           id="text432"><tspan
             x="0 5.40625 11.52625 15.4175 21.567499 27.067499 33.197498 38.407501 42.327499 45.5075"
             y="0"
             id="tspan430">Forecast 3</tspan></text>
      </g>
      <path
         d="m 57.903125,442.26182 h 10 10"
         style="fill:none;stroke:#fe5000;stroke-width:1.5;stroke-linecap:square;stroke-linejoin:round;stroke-miterlimit:10;stroke-dasharray:none;stroke-opacity:0.7"
         id="path434" />
      <g
         id="g436"
         transform="translate(85.903125,438.76182)">
        <text
           xml:space="preserve"
           transform="scale(1,-1)"
           style="font-variant:normal;font-weight:normal;font-size:10px;font-family:'DejaVu Sans';-inkscape-font-specification:DejaVuSans;writing-mode:lr-tb;fill:#ffffff;fill-opacity:1;fill-rule:nonzero;stroke:none"
           id="text440"><tspan
             x="0 5.40625 11.52625 15.4175 21.567499 27.067499 33.197498 38.407501 42.327499 45.5075"
             y="0"
             id="tspan438">Forecast 4</tspan></text>
      </g>
      <path
         d="m 57.903125,424.08995 h 20 v 7 h -20 z"
         style="fill:#808080;fill-opacity:0.2;fill-rule:nonzero;stroke:#808080;stroke-width:1;stroke-linecap:butt;stroke-linejoin:miter;stroke-miterlimit:10;stroke-dasharray:none;stroke-opacity:0.2"
         id="path442" />
      <g
         id="g444"
         transform="translate(85.903125,424.08995)">
        <text
           xml:space="preserve"
           transform="scale(1,-1)"
           style="font-variant:normal;font-weight:normal;font-size:10px;font-family:'DejaVu Sans';-inkscape-font-specification:DejaVuSans;writing-mode:lr-tb;fill:#ffffff;fill-opacity:1;fill-rule:nonzero;stroke:none"
           id="text448"><tspan
             x="0 6.3600001 12.72 22.219999 25.4 32.380001 38.5 44.84 48.360001 51.139999 57.490002 63.639999 69.980003 75.480003"
             y="0"
             id="tspan446">95% Confidence</tspan></text>
      </g>
    </g>
  </g>
</svg>
