<?xml version="1.0" encoding="UTF-8" standalone="no"?>
<!-- Created with Inkscape (http://www.inkscape.org/) -->

<svg
   version="1.1"
   id="svg2"
   width="1520.4673"
   height="758.40002"
   viewBox="0 0 1520.4673 758.40002"
   xmlns="http://www.w3.org/2000/svg"
   xmlns:svg="http://www.w3.org/2000/svg">
  <defs
     id="defs6">
    <clipPath
       clipPathUnits="userSpaceOnUse"
       id="clipPath20">
      <path
         d="M 26.91875,289.8 H 1133.1504 V 561.6 H 26.91875 Z"
         id="path18" />
    </clipPath>
    <clipPath
       clipPathUnits="userSpaceOnUse"
       id="clipPath40">
      <path
         d="M 26.91875,289.8 H 1133.1504 V 561.6 H 26.91875 Z"
         id="path38" />
    </clipPath>
    <clipPath
       clipPathUnits="userSpaceOnUse"
       id="clipPath60">
      <path
         d="M 26.91875,289.8 H 1133.1504 V 561.6 H 26.91875 Z"
         id="path58" />
    </clipPath>
    <clipPath
       clipPathUnits="userSpaceOnUse"
       id="clipPath80">
      <path
         d="M 26.91875,289.8 H 1133.1504 V 561.6 H 26.91875 Z"
         id="path78" />
    </clipPath>
    <clipPath
       clipPathUnits="userSpaceOnUse"
       id="clipPath100">
      <path
         d="M 26.91875,289.8 H 1133.1504 V 561.6 H 26.91875 Z"
         id="path98" />
    </clipPath>
    <clipPath
       clipPathUnits="userSpaceOnUse"
       id="clipPath120">
      <path
         d="M 26.91875,289.8 H 1133.1504 V 561.6 H 26.91875 Z"
         id="path118" />
    </clipPath>
    <clipPath
       clipPathUnits="userSpaceOnUse"
       id="clipPath140">
      <path
         d="M 26.91875,289.8 H 1133.1504 V 561.6 H 26.91875 Z"
         id="path138" />
    </clipPath>
    <clipPath
       clipPathUnits="userSpaceOnUse"
       id="clipPath160">
      <path
         d="M 26.91875,289.8 H 1133.1504 V 561.6 H 26.91875 Z"
         id="path158" />
    </clipPath>
    <clipPath
       clipPathUnits="userSpaceOnUse"
       id="clipPath180">
      <path
         d="M 26.91875,289.8 H 1133.1504 V 561.6 H 26.91875 Z"
         id="path178" />
    </clipPath>
    <clipPath
       clipPathUnits="userSpaceOnUse"
       id="clipPath190">
      <path
         d="M 26.91875,289.8 H 1133.1504 V 561.6 H 26.91875 Z"
         id="path188" />
    </clipPath>
    <clipPath
       clipPathUnits="userSpaceOnUse"
       id="clipPath200">
      <path
         d="M 26.91875,289.8 H 1133.1504 V 561.6 H 26.91875 Z"
         id="path198" />
    </clipPath>
    <clipPath
       clipPathUnits="userSpaceOnUse"
       id="clipPath246">
      <path
         d="M 26.91875,7.2 H 1133.1504 V 279 H 26.91875 Z"
         id="path244" />
    </clipPath>
    <clipPath
       clipPathUnits="userSpaceOnUse"
       id="clipPath256">
      <path
         d="M 26.91875,7.2 H 1133.1504 V 279 H 26.91875 Z"
         id="path254" />
    </clipPath>
    <clipPath
       clipPathUnits="userSpaceOnUse"
       id="clipPath266">
      <path
         d="M 26.91875,7.2 H 1133.1504 V 279 H 26.91875 Z"
         id="path264" />
    </clipPath>
    <clipPath
       clipPathUnits="userSpaceOnUse"
       id="clipPath286">
      <path
         d="M 26.91875,7.2 H 1133.1504 V 279 H 26.91875 Z"
         id="path284" />
    </clipPath>
    <clipPath
       clipPathUnits="userSpaceOnUse"
       id="clipPath306">
      <path
         d="M 26.91875,7.2 H 1133.1504 V 279 H 26.91875 Z"
         id="path304" />
    </clipPath>
    <clipPath
       clipPathUnits="userSpaceOnUse"
       id="clipPath326">
      <path
         d="M 26.91875,7.2 H 1133.1504 V 279 H 26.91875 Z"
         id="path324" />
    </clipPath>
    <clipPath
       clipPathUnits="userSpaceOnUse"
       id="clipPath346">
      <path
         d="M 26.91875,7.2 H 1133.1504 V 279 H 26.91875 Z"
         id="path344" />
    </clipPath>
    <clipPath
       clipPathUnits="userSpaceOnUse"
       id="clipPath366">
      <path
         d="M 26.91875,7.2 H 1133.1504 V 279 H 26.91875 Z"
         id="path364" />
    </clipPath>
    <clipPath
       clipPathUnits="userSpaceOnUse"
       id="clipPath376">
      <path
         d="M 26.91875,7.2 H 1133.1504 V 279 H 26.91875 Z"
         id="path374" />
    </clipPath>
    <clipPath
       clipPathUnits="userSpaceOnUse"
       id="clipPath386">
      <path
         d="M 26.91875,7.2 H 1133.1504 V 279 H 26.91875 Z"
         id="path384" />
    </clipPath>
    <clipPath
       clipPathUnits="userSpaceOnUse"
       id="clipPath406">
      <path
         d="M 26.91875,7.2 H 1133.1504 V 279 H 26.91875 Z"
         id="path404" />
    </clipPath>
    <clipPath
       clipPathUnits="userSpaceOnUse"
       id="clipPath426">
      <path
         d="M 26.91875,289.8 H 1133.1504 V 561.6 H 26.91875 Z"
         id="path424" />
    </clipPath>
  </defs>
  <g
     id="g8"
     transform="matrix(1.3333333,0,0,-1.3333333,0,758.4)">
    <path
       d="M 0,0 H 1140.3505 V 568.8 H 0 Z"
       style="fill:#000000;fill-opacity:1;fill-rule:nonzero;stroke:none"
       id="path10" />
    <path
       d="M 26.91875,289.8 H 1133.1504 V 561.6 H 26.91875 Z"
       style="fill:#1a1a1a;fill-opacity:1;fill-rule:nonzero;stroke:none"
       id="path12" />
    <g
       id="g14">
      <g
         id="g16"
         clip-path="url(#clipPath20)">
        <path
           d="M 26.91875,302.15455 H 1133.1504"
           style="fill:none;stroke:#ffffff;stroke-width:0.8;stroke-linecap:square;stroke-linejoin:round;stroke-miterlimit:10;stroke-dasharray:none;stroke-opacity:0.3"
           id="path22" />
      </g>
    </g>
    <g
       id="g24">
      <path
         d="m 26.91875,302.15455 h -3.5"
         style="fill:#000000;fill-opacity:1;fill-rule:nonzero;stroke:#000000;stroke-width:0.8;stroke-linecap:butt;stroke-linejoin:round;stroke-miterlimit:10;stroke-dasharray:none;stroke-opacity:1"
         id="path26" />
      <g
         id="g28"
         transform="translate(7.2,298.35767)">
        <text
           xml:space="preserve"
           transform="scale(1,-1)"
           style="font-variant:normal;font-weight:normal;font-size:10px;font-family:'DejaVu Sans';-inkscape-font-specification:DejaVuSans;writing-mode:lr-tb;fill:#000000;fill-opacity:1;fill-rule:nonzero;stroke:none"
           id="text32"><tspan
             x="0 6.3600001"
             y="0"
             id="tspan30">45</tspan></text>
      </g>
    </g>
    <g
       id="g34">
      <g
         id="g36"
         clip-path="url(#clipPath40)">
        <path
           d="M 26.91875,337.45325 H 1133.1504"
           style="fill:none;stroke:#ffffff;stroke-width:0.8;stroke-linecap:square;stroke-linejoin:round;stroke-miterlimit:10;stroke-dasharray:none;stroke-opacity:0.3"
           id="path42" />
      </g>
    </g>
    <g
       id="g44">
      <path
         d="m 26.91875,337.45325 h -3.5"
         style="fill:#000000;fill-opacity:1;fill-rule:nonzero;stroke:#000000;stroke-width:0.8;stroke-linecap:butt;stroke-linejoin:round;stroke-miterlimit:10;stroke-dasharray:none;stroke-opacity:1"
         id="path46" />
      <g
         id="g48"
         transform="translate(7.2,333.65637)">
        <text
           xml:space="preserve"
           transform="scale(1,-1)"
           style="font-variant:normal;font-weight:normal;font-size:10px;font-family:'DejaVu Sans';-inkscape-font-specification:DejaVuSans;writing-mode:lr-tb;fill:#000000;fill-opacity:1;fill-rule:nonzero;stroke:none"
           id="text52"><tspan
             x="0 6.3600001"
             y="0"
             id="tspan50">46</tspan></text>
      </g>
    </g>
    <g
       id="g54">
      <g
         id="g56"
         clip-path="url(#clipPath60)">
        <path
           d="M 26.91875,372.75195 H 1133.1504"
           style="fill:none;stroke:#ffffff;stroke-width:0.8;stroke-linecap:square;stroke-linejoin:round;stroke-miterlimit:10;stroke-dasharray:none;stroke-opacity:0.3"
           id="path62" />
      </g>
    </g>
    <g
       id="g64">
      <path
         d="m 26.91875,372.75195 h -3.5"
         style="fill:#000000;fill-opacity:1;fill-rule:nonzero;stroke:#000000;stroke-width:0.8;stroke-linecap:butt;stroke-linejoin:round;stroke-miterlimit:10;stroke-dasharray:none;stroke-opacity:1"
         id="path66" />
      <g
         id="g68"
         transform="translate(7.2,368.95507)">
        <text
           xml:space="preserve"
           transform="scale(1,-1)"
           style="font-variant:normal;font-weight:normal;font-size:10px;font-family:'DejaVu Sans';-inkscape-font-specification:DejaVuSans;writing-mode:lr-tb;fill:#000000;fill-opacity:1;fill-rule:nonzero;stroke:none"
           id="text72"><tspan
             x="0 6.3600001"
             y="0"
             id="tspan70">47</tspan></text>
      </g>
    </g>
    <g
       id="g74">
      <g
         id="g76"
         clip-path="url(#clipPath80)">
        <path
           d="M 26.91875,408.05065 H 1133.1504"
           style="fill:none;stroke:#ffffff;stroke-width:0.8;stroke-linecap:square;stroke-linejoin:round;stroke-miterlimit:10;stroke-dasharray:none;stroke-opacity:0.3"
           id="path82" />
      </g>
    </g>
    <g
       id="g84">
      <path
         d="m 26.91875,408.05065 h -3.5"
         style="fill:#000000;fill-opacity:1;fill-rule:nonzero;stroke:#000000;stroke-width:0.8;stroke-linecap:butt;stroke-linejoin:round;stroke-miterlimit:10;stroke-dasharray:none;stroke-opacity:1"
         id="path86" />
      <g
         id="g88"
         transform="translate(7.2,404.25377)">
        <text
           xml:space="preserve"
           transform="scale(1,-1)"
           style="font-variant:normal;font-weight:normal;font-size:10px;font-family:'DejaVu Sans';-inkscape-font-specification:DejaVuSans;writing-mode:lr-tb;fill:#000000;fill-opacity:1;fill-rule:nonzero;stroke:none"
           id="text92"><tspan
             x="0 6.3600001"
             y="0"
             id="tspan90">48</tspan></text>
      </g>
    </g>
    <g
       id="g94">
      <g
         id="g96"
         clip-path="url(#clipPath100)">
        <path
           d="M 26.91875,443.34935 H 1133.1504"
           style="fill:none;stroke:#ffffff;stroke-width:0.8;stroke-linecap:square;stroke-linejoin:round;stroke-miterlimit:10;stroke-dasharray:none;stroke-opacity:0.3"
           id="path102" />
      </g>
    </g>
    <g
       id="g104">
      <path
         d="m 26.91875,443.34935 h -3.5"
         style="fill:#000000;fill-opacity:1;fill-rule:nonzero;stroke:#000000;stroke-width:0.8;stroke-linecap:butt;stroke-linejoin:round;stroke-miterlimit:10;stroke-dasharray:none;stroke-opacity:1"
         id="path106" />
      <g
         id="g108"
         transform="translate(7.2,439.55248)">
        <text
           xml:space="preserve"
           transform="scale(1,-1)"
           style="font-variant:normal;font-weight:normal;font-size:10px;font-family:'DejaVu Sans';-inkscape-font-specification:DejaVuSans;writing-mode:lr-tb;fill:#000000;fill-opacity:1;fill-rule:nonzero;stroke:none"
           id="text112"><tspan
             x="0 6.3600001"
             y="0"
             id="tspan110">49</tspan></text>
      </g>
    </g>
    <g
       id="g114">
      <g
         id="g116"
         clip-path="url(#clipPath120)">
        <path
           d="M 26.91875,478.64805 H 1133.1504"
           style="fill:none;stroke:#ffffff;stroke-width:0.8;stroke-linecap:square;stroke-linejoin:round;stroke-miterlimit:10;stroke-dasharray:none;stroke-opacity:0.3"
           id="path122" />
      </g>
    </g>
    <g
       id="g124">
      <path
         d="m 26.91875,478.64805 h -3.5"
         style="fill:#000000;fill-opacity:1;fill-rule:nonzero;stroke:#000000;stroke-width:0.8;stroke-linecap:butt;stroke-linejoin:round;stroke-miterlimit:10;stroke-dasharray:none;stroke-opacity:1"
         id="path126" />
      <g
         id="g128"
         transform="translate(7.2,474.85118)">
        <text
           xml:space="preserve"
           transform="scale(1,-1)"
           style="font-variant:normal;font-weight:normal;font-size:10px;font-family:'DejaVu Sans';-inkscape-font-specification:DejaVuSans;writing-mode:lr-tb;fill:#000000;fill-opacity:1;fill-rule:nonzero;stroke:none"
           id="text132"><tspan
             x="0 6.3600001"
             y="0"
             id="tspan130">50</tspan></text>
      </g>
    </g>
    <g
       id="g134">
      <g
         id="g136"
         clip-path="url(#clipPath140)">
        <path
           d="M 26.91875,513.94675 H 1133.1504"
           style="fill:none;stroke:#ffffff;stroke-width:0.8;stroke-linecap:square;stroke-linejoin:round;stroke-miterlimit:10;stroke-dasharray:none;stroke-opacity:0.3"
           id="path142" />
      </g>
    </g>
    <g
       id="g144">
      <path
         d="m 26.91875,513.94675 h -3.5"
         style="fill:#000000;fill-opacity:1;fill-rule:nonzero;stroke:#000000;stroke-width:0.8;stroke-linecap:butt;stroke-linejoin:round;stroke-miterlimit:10;stroke-dasharray:none;stroke-opacity:1"
         id="path146" />
      <g
         id="g148"
         transform="translate(7.2,510.14988)">
        <text
           xml:space="preserve"
           transform="scale(1,-1)"
           style="font-variant:normal;font-weight:normal;font-size:10px;font-family:'DejaVu Sans';-inkscape-font-specification:DejaVuSans;writing-mode:lr-tb;fill:#000000;fill-opacity:1;fill-rule:nonzero;stroke:none"
           id="text152"><tspan
             x="0 6.3600001"
             y="0"
             id="tspan150">51</tspan></text>
      </g>
    </g>
    <g
       id="g154">
      <g
         id="g156"
         clip-path="url(#clipPath160)">
        <path
           d="M 26.91875,549.24545 H 1133.1504"
           style="fill:none;stroke:#ffffff;stroke-width:0.8;stroke-linecap:square;stroke-linejoin:round;stroke-miterlimit:10;stroke-dasharray:none;stroke-opacity:0.3"
           id="path162" />
      </g>
    </g>
    <g
       id="g164">
      <path
         d="m 26.91875,549.24545 h -3.5"
         style="fill:#000000;fill-opacity:1;fill-rule:nonzero;stroke:#000000;stroke-width:0.8;stroke-linecap:butt;stroke-linejoin:round;stroke-miterlimit:10;stroke-dasharray:none;stroke-opacity:1"
         id="path166" />
      <g
         id="g168"
         transform="translate(7.2,545.44858)">
        <text
           xml:space="preserve"
           transform="scale(1,-1)"
           style="font-variant:normal;font-weight:normal;font-size:10px;font-family:'DejaVu Sans';-inkscape-font-specification:DejaVuSans;writing-mode:lr-tb;fill:#000000;fill-opacity:1;fill-rule:nonzero;stroke:none"
           id="text172"><tspan
             x="0 6.3600001"
             y="0"
             id="tspan170">52</tspan></text>
      </g>
    </g>
    <g
       id="g174">
      <g
         id="g176"
         clip-path="url(#clipPath180)">
        <path
           d="M 26.91875,302.15455 H 1133.1504"
           style="fill:none;stroke:#fe5000;stroke-width:4;stroke-linecap:square;stroke-linejoin:round;stroke-miterlimit:10;stroke-dasharray:none;stroke-opacity:0.8"
           id="path182" />
      </g>
    </g>
    <g
       id="g184">
      <g
         id="g186"
         clip-path="url(#clipPath190)">
        <path
           d="M 26.91875,549.24545 H 1133.1504"
           style="fill:none;stroke:#c800ff;stroke-width:4;stroke-linecap:square;stroke-linejoin:round;stroke-miterlimit:10;stroke-dasharray:none;stroke-opacity:0.8"
           id="path192" />
      </g>
    </g>
    <g
       id="g194">
      <g
         id="g196"
         clip-path="url(#clipPath200)">
        <path
           d="M 26.91875,408.05065 H 1133.1504"
           style="fill:none;stroke:#f0c9a5;stroke-width:4;stroke-linecap:square;stroke-linejoin:round;stroke-miterlimit:10;stroke-dasharray:none;stroke-opacity:0.8"
           id="path202" />
      </g>
    </g>
    <g
       id="g204">
      <path
         d="M 26.91875,289.8 V 561.6"
         style="fill:none;stroke:#ffffff;stroke-width:0.8;stroke-linecap:square;stroke-linejoin:miter;stroke-miterlimit:10;stroke-dasharray:none;stroke-opacity:1"
         id="path206" />
      <path
         d="M 1133.1504,289.8 V 561.6"
         style="fill:none;stroke:#ffffff;stroke-width:0.8;stroke-linecap:square;stroke-linejoin:miter;stroke-miterlimit:10;stroke-dasharray:none;stroke-opacity:1"
         id="path208" />
      <path
         d="M 26.91875,289.8 H 1133.1504"
         style="fill:none;stroke:#ffffff;stroke-width:0.8;stroke-linecap:square;stroke-linejoin:miter;stroke-miterlimit:10;stroke-dasharray:none;stroke-opacity:1"
         id="path210" />
      <path
         d="M 26.91875,561.6 H 1133.1504"
         style="fill:none;stroke:#ffffff;stroke-width:0.8;stroke-linecap:square;stroke-linejoin:miter;stroke-miterlimit:10;stroke-dasharray:none;stroke-opacity:1"
         id="path212" />
      <path
         d="m 514.44774,311.29765 h 41.32813 c 3.73333,0 5.59999,1.86666 5.59999,5.6 v 13.54687 c 0,3.73333 -1.86666,5.6 -5.59999,5.6 h -41.32813 c -3.73333,0 -5.6,-1.86667 -5.6,-5.6 v -13.54687 c 0,-3.73334 1.86667,-5.6 5.6,-5.6 z"
         style="fill:#000000;fill-opacity:0.7;fill-rule:nonzero;stroke:#fe5000;stroke-width:1.5;stroke-linecap:butt;stroke-linejoin:miter;stroke-miterlimit:10;stroke-dasharray:none;stroke-opacity:0.7"
         id="path214" />
      <g
         id="g216"
         transform="translate(514.44774,319.8039)">
        <text
           xml:space="preserve"
           transform="scale(1,-1)"
           style="font-variant:normal;font-weight:bold;font-size:14px;font-family:'DejaVu Sans';-inkscape-font-specification:DejaVuSans-Bold;writing-mode:lr-tb;fill:#fe5000;fill-opacity:0.9;fill-rule:nonzero;stroke:none"
           id="text220"><tspan
             x="0 10.136 19.698 30.534"
             y="0"
             id="tspan218">YEAR</tspan></text>
      </g>
      <path
         d="m 295.82488,516.03011 h 73.79687 c 3.73333,0 5.6,1.86667 5.6,5.6 v 13.54688 c 0,3.73333 -1.86667,5.6 -5.6,5.6 h -73.79687 c -3.73334,0 -5.60001,-1.86667 -5.60001,-5.6 v -13.54688 c 0,-3.73333 1.86667,-5.6 5.60001,-5.6 z"
         style="fill:#000000;fill-opacity:0.7;fill-rule:nonzero;stroke:#c800ff;stroke-width:1.5;stroke-linecap:butt;stroke-linejoin:miter;stroke-miterlimit:10;stroke-dasharray:none;stroke-opacity:0.7"
         id="path222" />
      <g
         id="g224"
         transform="translate(295.82487,524.53636)">
        <text
           xml:space="preserve"
           transform="scale(1,-1)"
           style="font-variant:normal;font-weight:bold;font-size:14px;font-family:'DejaVu Sans';-inkscape-font-specification:DejaVuSans-Bold;writing-mode:lr-tb;fill:#c800ff;fill-opacity:0.9;fill-rule:nonzero;stroke:none"
           id="text228"><tspan
             x="0 11.9 22.846125 33.682125 43.837124 53.385124 62.947124"
             y="0"
             id="tspan226">QUARTER</tspan></text>
      </g>
      <path
         d="m 120.92658,374.83531 h 58.82813 c 3.73333,0 5.6,1.86666 5.6,5.6 v 13.54687 c 0,3.73334 -1.86667,5.6 -5.6,5.6 h -58.82813 c -3.73333,0 -5.6,-1.86666 -5.6,-5.6 v -13.54687 c 0,-3.73334 1.86667,-5.6 5.6,-5.6 z"
         style="fill:#000000;fill-opacity:0.7;fill-rule:nonzero;stroke:#f0c9a5;stroke-width:1.5;stroke-linecap:butt;stroke-linejoin:miter;stroke-miterlimit:10;stroke-dasharray:none;stroke-opacity:0.7"
         id="path230" />
      <g
         id="g232"
         transform="translate(120.92658,383.34156)">
        <text
           xml:space="preserve"
           transform="scale(1,-1)"
           style="font-variant:normal;font-weight:bold;font-size:14px;font-family:'DejaVu Sans';-inkscape-font-specification:DejaVuSans-Bold;writing-mode:lr-tb;fill:#f0c9a5;fill-opacity:0.9;fill-rule:nonzero;stroke:none"
           id="text236"><tspan
             x="0 13.93 25.83 37.548 47.096001"
             y="0"
             id="tspan234">MONTH</tspan></text>
      </g>
      <path
         d="M 26.91875,7.2 H 1133.1504 V 279 H 26.91875 Z"
         style="fill:#1a1a1a;fill-opacity:1;fill-rule:nonzero;stroke:none"
         id="path238" />
    </g>
    <g
       id="g240">
      <g
         id="g242"
         clip-path="url(#clipPath246)">
        <path
           d="M 77.202009,117.05446 V 19.554545 h 43.724571 43.72457 43.72458 43.72457 43.72458 43.72457 43.72457 43.72457 43.72458 43.72457 43.72457 43.72458 43.72457 43.72457 43.72458 43.72457 43.72457 43.72457 43.72458 43.72457 43.72457 43.72456 43.7246 v 104.464195 0 l -43.7246,13.92856 -43.72456,13.92856 -43.72457,27.85711 -43.72457,27.85712 -43.72458,20.89284 -43.72457,-6.96428 -43.72457,-6.96428 -43.72457,-6.96428 -43.72458,-20.89284 -43.72457,-20.89284 -43.72457,-13.92855 -43.72458,-6.96428 -43.72457,6.96428 -43.72457,20.89283 -43.72458,6.96428 -43.72457,-34.82139 -43.72457,-20.89284 -43.72457,-13.92856 -43.72458,-6.96428 -43.72457,-2.78571 -43.72458,2.78571 -43.72457,6.96428 z"
           style="fill:#ffffff;fill-opacity:0.15;fill-rule:nonzero;stroke:#ffffff;stroke-width:1;stroke-linecap:butt;stroke-linejoin:round;stroke-miterlimit:10;stroke-dasharray:none;stroke-opacity:0.15"
           id="path248" />
      </g>
    </g>
    <g
       id="g250">
      <g
         id="g252"
         clip-path="url(#clipPath256)">
        <path
           d="M 77.202009,138.17348 V 95.935439 l 43.724571,-8.705349 43.72457,-8.70535 43.72458,-3.482139 43.72457,3.482139 43.72458,8.70535 43.72457,17.4107 43.72457,26.11605 43.72457,31.5714 43.72458,-5.22321 43.72457,-17.64284 43.72457,-8.70535 43.72458,8.70535 43.72457,12.41963 43.72457,15.66963 43.72458,15.66963 43.72457,5.2232 43.72457,-3.34708 43.72457,5.22321 43.72458,-15.66963 43.72457,-20.89284 43.72457,-14.29575 43.72456,-17.4107 43.7246,-17.4107 v 38.7559 0 l -43.7246,10.44642 -43.72456,10.44642 -43.72457,41.41848 -43.72457,34.8214 -43.72458,26.11605 -43.72457,-8.70536 -43.72457,-17.27564 -43.72457,-8.70535 -43.72458,-26.11605 -43.72457,-26.11605 -43.72457,-15.43748 -43.72458,-5.22321 -43.72457,5.22321 -43.72457,24.14283 -43.72458,8.70535 -43.72457,-38.07139 -43.72457,-15.66963 -43.72457,-10.44642 -43.72458,-5.22321 -43.72457,-2.08929 -43.72458,2.08929 -43.72457,5.22321 z"
           style="fill:#808080;fill-opacity:0.3;fill-rule:nonzero;stroke:#808080;stroke-width:1;stroke-linecap:butt;stroke-linejoin:round;stroke-miterlimit:10;stroke-dasharray:none;stroke-opacity:0.3"
           id="path258" />
      </g>
    </g>
    <g
       id="g260">
      <g
         id="g262"
         clip-path="url(#clipPath266)">
        <path
           d="M 26.91875,19.554545 H 1133.1504"
           style="fill:none;stroke:#ffffff;stroke-width:0.8;stroke-linecap:square;stroke-linejoin:round;stroke-miterlimit:10;stroke-dasharray:none;stroke-opacity:0.3"
           id="path268" />
      </g>
    </g>
    <g
       id="g270">
      <path
         d="m 26.91875,19.554545 h -3.5"
         style="fill:#000000;fill-opacity:1;fill-rule:nonzero;stroke:#000000;stroke-width:0.8;stroke-linecap:butt;stroke-linejoin:round;stroke-miterlimit:10;stroke-dasharray:none;stroke-opacity:1"
         id="path272" />
      <g
         id="g274"
         transform="translate(13.559375,15.75767)">
        <text
           xml:space="preserve"
           transform="scale(1,-1)"
           style="font-variant:normal;font-weight:normal;font-size:10px;font-family:'DejaVu Sans';-inkscape-font-specification:DejaVuSans;writing-mode:lr-tb;fill:#000000;fill-opacity:1;fill-rule:nonzero;stroke:none"
           id="text278"><tspan
             x="0"
             y="0"
             id="tspan276">0</tspan></text>
      </g>
    </g>
    <g
       id="g280">
      <g
         id="g282"
         clip-path="url(#clipPath286)">
        <path
           d="M 26.91875,76.689864 H 1133.1504"
           style="fill:none;stroke:#ffffff;stroke-width:0.8;stroke-linecap:square;stroke-linejoin:round;stroke-miterlimit:10;stroke-dasharray:none;stroke-opacity:0.3"
           id="path288" />
      </g>
    </g>
    <g
       id="g290">
      <path
         d="m 26.91875,76.689864 h -3.5"
         style="fill:#000000;fill-opacity:1;fill-rule:nonzero;stroke:#000000;stroke-width:0.8;stroke-linecap:butt;stroke-linejoin:round;stroke-miterlimit:10;stroke-dasharray:none;stroke-opacity:1"
         id="path292" />
      <g
         id="g294"
         transform="translate(7.2,72.892989)">
        <text
           xml:space="preserve"
           transform="scale(1,-1)"
           style="font-variant:normal;font-weight:normal;font-size:10px;font-family:'DejaVu Sans';-inkscape-font-specification:DejaVuSans;writing-mode:lr-tb;fill:#000000;fill-opacity:1;fill-rule:nonzero;stroke:none"
           id="text298"><tspan
             x="0 6.3600001"
             y="0"
             id="tspan296">20</tspan></text>
      </g>
    </g>
    <g
       id="g300">
      <g
         id="g302"
         clip-path="url(#clipPath306)">
        <path
           d="M 26.91875,133.82518 H 1133.1504"
           style="fill:none;stroke:#ffffff;stroke-width:0.8;stroke-linecap:square;stroke-linejoin:round;stroke-miterlimit:10;stroke-dasharray:none;stroke-opacity:0.3"
           id="path308" />
      </g>
    </g>
    <g
       id="g310">
      <path
         d="m 26.91875,133.82518 h -3.5"
         style="fill:#000000;fill-opacity:1;fill-rule:nonzero;stroke:#000000;stroke-width:0.8;stroke-linecap:butt;stroke-linejoin:round;stroke-miterlimit:10;stroke-dasharray:none;stroke-opacity:1"
         id="path312" />
      <g
         id="g314"
         transform="translate(7.2,130.02831)">
        <text
           xml:space="preserve"
           transform="scale(1,-1)"
           style="font-variant:normal;font-weight:normal;font-size:10px;font-family:'DejaVu Sans';-inkscape-font-specification:DejaVuSans;writing-mode:lr-tb;fill:#000000;fill-opacity:1;fill-rule:nonzero;stroke:none"
           id="text318"><tspan
             x="0 6.3600001"
             y="0"
             id="tspan316">40</tspan></text>
      </g>
    </g>
    <g
       id="g320">
      <g
         id="g322"
         clip-path="url(#clipPath326)">
        <path
           d="M 26.91875,190.9605 H 1133.1504"
           style="fill:none;stroke:#ffffff;stroke-width:0.8;stroke-linecap:square;stroke-linejoin:round;stroke-miterlimit:10;stroke-dasharray:none;stroke-opacity:0.3"
           id="path328" />
      </g>
    </g>
    <g
       id="g330">
      <path
         d="m 26.91875,190.9605 h -3.5"
         style="fill:#000000;fill-opacity:1;fill-rule:nonzero;stroke:#000000;stroke-width:0.8;stroke-linecap:butt;stroke-linejoin:round;stroke-miterlimit:10;stroke-dasharray:none;stroke-opacity:1"
         id="path332" />
      <g
         id="g334"
         transform="translate(7.2,187.16363)">
        <text
           xml:space="preserve"
           transform="scale(1,-1)"
           style="font-variant:normal;font-weight:normal;font-size:10px;font-family:'DejaVu Sans';-inkscape-font-specification:DejaVuSans;writing-mode:lr-tb;fill:#000000;fill-opacity:1;fill-rule:nonzero;stroke:none"
           id="text338"><tspan
             x="0 6.3600001"
             y="0"
             id="tspan336">60</tspan></text>
      </g>
    </g>
    <g
       id="g340">
      <g
         id="g342"
         clip-path="url(#clipPath346)">
        <path
           d="M 26.91875,248.09582 H 1133.1504"
           style="fill:none;stroke:#ffffff;stroke-width:0.8;stroke-linecap:square;stroke-linejoin:round;stroke-miterlimit:10;stroke-dasharray:none;stroke-opacity:0.3"
           id="path348" />
      </g>
    </g>
    <g
       id="g350">
      <path
         d="m 26.91875,248.09582 h -3.5"
         style="fill:#000000;fill-opacity:1;fill-rule:nonzero;stroke:#000000;stroke-width:0.8;stroke-linecap:butt;stroke-linejoin:round;stroke-miterlimit:10;stroke-dasharray:none;stroke-opacity:1"
         id="path352" />
      <g
         id="g354"
         transform="translate(7.2,244.29895)">
        <text
           xml:space="preserve"
           transform="scale(1,-1)"
           style="font-variant:normal;font-weight:normal;font-size:10px;font-family:'DejaVu Sans';-inkscape-font-specification:DejaVuSans;writing-mode:lr-tb;fill:#000000;fill-opacity:1;fill-rule:nonzero;stroke:none"
           id="text358"><tspan
             x="0 6.3600001"
             y="0"
             id="tspan356">80</tspan></text>
      </g>
    </g>
    <g
       id="g360">
      <g
         id="g362"
         clip-path="url(#clipPath366)">
        <path
           d="m 77.202009,111.5356 43.724571,-6.57008 43.72457,-6.570075 43.72458,-2.62803 43.72457,2.62803 43.72458,6.570075 43.72457,13.14015 43.72457,19.71023 43.72457,32.85037 43.72458,-6.57007 43.72457,-19.71023 43.72457,-6.57007 43.72458,6.57007 43.72457,13.14015 43.72457,19.71023 43.72458,19.71022 43.72457,6.57008 43.72457,6.57007 43.72457,6.57008 43.72458,-19.71023 43.72457,-26.2803 43.72457,-26.2803 43.72456,-13.14015 43.7246,-13.14015"
           style="fill:none;stroke:#fe5000;stroke-width:1.5;stroke-linecap:butt;stroke-linejoin:round;stroke-miterlimit:10;stroke-dasharray:1.5, 2.475;stroke-dashoffset:0;stroke-opacity:0.4"
           id="path368" />
      </g>
    </g>
    <g
       id="g370">
      <g
         id="g372"
         clip-path="url(#clipPath376)">
        <path
           d="m 77.202009,125.84376 43.724571,-7.59209 43.72457,-7.59209 43.72458,-3.03683 43.72457,3.03683 43.72458,7.59209 43.72457,15.18418 43.72457,22.77626 43.72457,37.96043 43.72458,-7.59209 43.72457,-22.77626 43.72457,-7.59208 43.72458,7.59208 43.72457,15.18418 43.72457,22.77626 43.72458,22.77626 43.72457,7.59208 43.72457,7.59209 43.72457,7.59209 43.72458,-22.77626 43.72457,-30.36835 43.72457,-30.36835 43.72456,-15.18417 43.7246,-15.18417"
           style="fill:none;stroke:#c800ff;stroke-width:1.5;stroke-linecap:butt;stroke-linejoin:round;stroke-miterlimit:10;stroke-dasharray:1.5, 2.475;stroke-dashoffset:0;stroke-opacity:0.4"
           id="path378" />
      </g>
    </g>
    <g
       id="g380">
      <g
         id="g382"
         clip-path="url(#clipPath386)">
        <path
           d="m 77.202009,117.66767 43.724571,-7.00809 43.72457,-7.00807 43.72458,-2.80324 43.72457,2.80324 43.72458,7.00807 43.72457,14.01617 43.72457,21.02424 43.72457,35.0404 43.72458,-7.00808 43.72457,-21.02424 43.72457,-7.00808 43.72458,7.00808 43.72457,14.01616 43.72457,21.02424 43.72458,21.02424 43.72457,7.00808 43.72457,7.00808 43.72457,7.00808 43.72458,-21.02424 43.72457,-28.03232 43.72457,-28.03232 43.72456,-14.01616 43.7246,-14.01616"
           style="fill:none;stroke:#f0c9a5;stroke-width:1.5;stroke-linecap:butt;stroke-linejoin:round;stroke-miterlimit:10;stroke-dasharray:1.5, 2.475;stroke-dashoffset:0;stroke-opacity:0.4"
           id="path388" />
      </g>
    </g>
    <g
       id="g390">
      <path
         d="M 26.91875,7.2 V 279"
         style="fill:none;stroke:#ffffff;stroke-width:0.8;stroke-linecap:square;stroke-linejoin:miter;stroke-miterlimit:10;stroke-dasharray:none;stroke-opacity:1"
         id="path392" />
      <path
         d="M 1133.1504,7.2 V 279"
         style="fill:none;stroke:#ffffff;stroke-width:0.8;stroke-linecap:square;stroke-linejoin:miter;stroke-miterlimit:10;stroke-dasharray:none;stroke-opacity:1"
         id="path394" />
      <path
         d="M 26.91875,7.2 H 1133.1504"
         style="fill:none;stroke:#ffffff;stroke-width:0.8;stroke-linecap:square;stroke-linejoin:miter;stroke-miterlimit:10;stroke-dasharray:none;stroke-opacity:1"
         id="path396" />
      <path
         d="M 26.91875,279 H 1133.1504"
         style="fill:none;stroke:#ffffff;stroke-width:0.8;stroke-linecap:square;stroke-linejoin:miter;stroke-miterlimit:10;stroke-dasharray:none;stroke-opacity:1"
         id="path398" />
    </g>
    <g
       id="g400">
      <g
         id="g402"
         clip-path="url(#clipPath406)">
        <path
           d="m 77.202009,117.05446 43.724571,-6.96428 43.72457,-6.96428 43.72458,-2.78571 43.72457,2.78571 43.72458,6.96428 43.72457,13.92856 43.72457,20.89284 43.72457,34.82139 43.72458,-6.96428 43.72457,-20.89283 43.72457,-6.96428 43.72458,6.96428 43.72457,13.92855 43.72457,20.89284 43.72458,20.89284 43.72457,6.96428 43.72457,6.96428 43.72457,6.96428 43.72458,-20.89284 43.72457,-27.85712 43.72457,-27.85711 43.72456,-13.92856 43.7246,-13.92856"
           style="fill:none;stroke:#ffffff;stroke-width:5;stroke-linecap:square;stroke-linejoin:round;stroke-miterlimit:10;stroke-dasharray:none;stroke-opacity:0.9"
           id="path408" />
      </g>
    </g>
    <g
       id="g410">
      <path
         d="m 252.1003,201.27098 h 152.17188 c 6.4,0 9.6,3.2 9.6,9.6 v 15.48437 c 0,6.4 -3.2,9.6 -9.6,9.6 H 252.1003 c -6.4,0 -9.6,-3.2 -9.6,-9.6 v -15.48437 c 0,-6.4 3.2,-9.6 9.6,-9.6 z"
         style="fill:#000000;fill-opacity:0.8;fill-rule:nonzero;stroke:#ffffff;stroke-width:1.5;stroke-linecap:butt;stroke-linejoin:miter;stroke-miterlimit:10;stroke-dasharray:none;stroke-opacity:0.8"
         id="path412" />
      <g
         id="g414"
         transform="translate(252.1003,214.1991)">
        <text
           xml:space="preserve"
           transform="scale(1,-1)"
           style="font-variant:normal;font-weight:bold;font-size:16px;font-family:'DejaVu Sans';-inkscape-font-specification:DejaVuSans-Bold;writing-mode:lr-tb;fill:#ffffff;fill-opacity:0.9;fill-rule:nonzero;stroke:none"
           id="text418"><tspan
             x="0 12.32 23.247999 34.768002 47.759998 55.311375 66.223373 72.175377 85.567375 98.703377 104.27138 117.66338 129.39137 140.31938"
             y="0"
             id="tspan416">RESULTING HPFC</tspan></text>
      </g>
    </g>
    <g
       id="g420">
      <g
         id="g422"
         clip-path="url(#clipPath426)">
        <path
           d="m 77.202009,334.38379 43.724571,-13.42885 43.72457,-13.42885 43.72458,-5.37154 43.72457,5.37154 43.72458,13.42885 43.72457,26.85771 43.72457,40.28656 43.72457,67.14427 43.72458,-13.42885 43.72457,-40.28657 43.72457,-13.42885 43.72458,13.42885 43.72457,26.85771 43.72457,40.28656 43.72458,40.28656 43.72457,13.42886 43.72457,13.42885 43.72457,13.42885 43.72458,-40.28656 43.72457,-53.71541 43.72457,-53.71542 43.72456,-26.8577 43.7246,-26.85771"
           style="fill:none;stroke:#00bfff;stroke-width:3;stroke-linecap:butt;stroke-linejoin:round;stroke-miterlimit:10;stroke-dasharray:11.1, 4.8;stroke-dashoffset:0;stroke-opacity:0.9"
           id="path428" />
      </g>
    </g>
    <g
       id="g430">
      <path
         d="M 26.91875,289.8 V 561.6"
         style="fill:none;stroke:#ffffff;stroke-width:0.8;stroke-linecap:square;stroke-linejoin:miter;stroke-miterlimit:10;stroke-dasharray:none;stroke-opacity:1"
         id="path432" />
      <path
         d="M 1133.1504,289.8 V 561.6"
         style="fill:none;stroke:#ffffff;stroke-width:0.8;stroke-linecap:square;stroke-linejoin:miter;stroke-miterlimit:10;stroke-dasharray:none;stroke-opacity:1"
         id="path434" />
      <path
         d="M 26.91875,289.8 H 1133.1504"
         style="fill:none;stroke:#ffffff;stroke-width:0.8;stroke-linecap:square;stroke-linejoin:miter;stroke-miterlimit:10;stroke-dasharray:none;stroke-opacity:1"
         id="path436" />
      <path
         d="M 26.91875,561.6 H 1133.1504"
         style="fill:none;stroke:#ffffff;stroke-width:0.8;stroke-linecap:square;stroke-linejoin:miter;stroke-miterlimit:10;stroke-dasharray:none;stroke-opacity:1"
         id="path438" />
      <path
         d="m 929.83118,511.64154 h 168.70312 c 5.3333,0 8,2.66667 8,8 v 15.48437 c 0,5.33334 -2.6667,8 -8,8 H 929.83118 c -5.33333,0 -8,-2.66666 -8,-8 v -15.48437 c 0,-5.33333 2.66667,-8 8,-8 z"
         style="fill:#000000;fill-opacity:0.7;fill-rule:nonzero;stroke:#00bfff;stroke-width:1.5;stroke-linecap:butt;stroke-linejoin:miter;stroke-miterlimit:10;stroke-dasharray:none;stroke-opacity:0.7"
         id="path440" />
      <g
         id="g442"
         transform="translate(929.83118,522.96966)">
        <text
           xml:space="preserve"
           transform="scale(1,-1)"
           style="font-variant:normal;font-weight:bold;font-size:16px;font-family:'DejaVu Sans';-inkscape-font-specification:DejaVuSans-Bold;writing-mode:lr-tb;fill:#00bfff;fill-opacity:0.9;fill-rule:nonzero;stroke:none"
           id="text446"><tspan
             x="0 11.52 24.912001 37.296001 49.023998 54.976002 68.367996 81.503998 87.071999 96.171875 108.55588 120.29987 131.21187 144.81187 157.13188"
             y="0"
             id="tspan444">SHAPING FACTORS</tspan></text>
      </g>
    </g>
  </g>
</svg>
