<?xml version="1.0" encoding="UTF-8" standalone="no"?>
<!-- Created with Inkscape (http://www.inkscape.org/) -->

<svg
   version="1.1"
   id="svg2"
   width="1364.0542"
   height="616.81891"
   viewBox="0 0 1364.0542 616.81891"
   xmlns="http://www.w3.org/2000/svg"
   xmlns:svg="http://www.w3.org/2000/svg">
  <defs
     id="defs6">
    <clipPath
       clipPathUnits="userSpaceOnUse"
       id="clipPath20">
      <path
         d="M 51.700781,45.48323 H 1097.6918 V 516.976 H 51.700781 Z"
         id="path18" />
    </clipPath>
    <clipPath
       clipPathUnits="userSpaceOnUse"
       id="clipPath30">
      <path
         d="M 51.700781,45.48323 H 1097.6918 V 516.976 H 51.700781 Z"
         id="path28" />
    </clipPath>
    <clipPath
       clipPathUnits="userSpaceOnUse"
       id="clipPath40">
      <path
         d="M 51.700781,45.48323 H 1097.6918 V 516.976 H 51.700781 Z"
         id="path38" />
    </clipPath>
    <clipPath
       clipPathUnits="userSpaceOnUse"
       id="clipPath50">
      <path
         d="M 51.700781,45.48323 H 1097.6918 V 516.976 H 51.700781 Z"
         id="path48" />
    </clipPath>
    <clipPath
       clipPathUnits="userSpaceOnUse"
       id="clipPath70">
      <path
         d="M 51.700781,45.48323 H 1097.6918 V 516.976 H 51.700781 Z"
         id="path68" />
    </clipPath>
    <clipPath
       clipPathUnits="userSpaceOnUse"
       id="clipPath90">
      <path
         d="M 51.700781,45.48323 H 1097.6918 V 516.976 H 51.700781 Z"
         id="path88" />
    </clipPath>
    <clipPath
       clipPathUnits="userSpaceOnUse"
       id="clipPath110">
      <path
         d="M 51.700781,45.48323 H 1097.6918 V 516.976 H 51.700781 Z"
         id="path108" />
    </clipPath>
    <clipPath
       clipPathUnits="userSpaceOnUse"
       id="clipPath130">
      <path
         d="M 51.700781,45.48323 H 1097.6918 V 516.976 H 51.700781 Z"
         id="path128" />
    </clipPath>
    <clipPath
       clipPathUnits="userSpaceOnUse"
       id="clipPath150">
      <path
         d="M 51.700781,45.48323 H 1097.6918 V 516.976 H 51.700781 Z"
         id="path148" />
    </clipPath>
    <clipPath
       clipPathUnits="userSpaceOnUse"
       id="clipPath170">
      <path
         d="M 51.700781,45.48323 H 1097.6918 V 516.976 H 51.700781 Z"
         id="path168" />
    </clipPath>
    <clipPath
       clipPathUnits="userSpaceOnUse"
       id="clipPath190">
      <path
         d="M 51.700781,45.48323 H 1097.6918 V 516.976 H 51.700781 Z"
         id="path188" />
    </clipPath>
    <clipPath
       clipPathUnits="userSpaceOnUse"
       id="clipPath210">
      <path
         d="M 51.700781,45.48323 H 1097.6918 V 516.976 H 51.700781 Z"
         id="path208" />
    </clipPath>
    <clipPath
       clipPathUnits="userSpaceOnUse"
       id="clipPath230">
      <path
         d="M 51.700781,45.48323 H 1097.6918 V 516.976 H 51.700781 Z"
         id="path228" />
    </clipPath>
    <clipPath
       clipPathUnits="userSpaceOnUse"
       id="clipPath250">
      <path
         d="M 51.700781,45.48323 H 1097.6918 V 516.976 H 51.700781 Z"
         id="path248" />
    </clipPath>
    <clipPath
       clipPathUnits="userSpaceOnUse"
       id="clipPath270">
      <path
         d="M 51.700781,45.48323 H 1097.6918 V 516.976 H 51.700781 Z"
         id="path268" />
    </clipPath>
    <clipPath
       clipPathUnits="userSpaceOnUse"
       id="clipPath296">
      <path
         d="M 51.700781,45.48323 H 1097.6918 V 516.976 H 51.700781 Z"
         id="path294" />
    </clipPath>
    <clipPath
       clipPathUnits="userSpaceOnUse"
       id="clipPath306">
      <path
         d="M 51.700781,45.48323 H 1097.6918 V 516.976 H 51.700781 Z"
         id="path304" />
    </clipPath>
    <clipPath
       clipPathUnits="userSpaceOnUse"
       id="clipPath316">
      <path
         d="M 51.700781,45.48323 H 1097.6918 V 516.976 H 51.700781 Z"
         id="path314" />
    </clipPath>
    <clipPath
       clipPathUnits="userSpaceOnUse"
       id="clipPath326">
      <path
         d="M 51.700781,45.48323 H 1097.6918 V 516.976 H 51.700781 Z"
         id="path324" />
    </clipPath>
    <clipPath
       clipPathUnits="userSpaceOnUse"
       id="clipPath336">
      <path
         d="M 51.700781,45.48323 H 1097.6918 V 516.976 H 51.700781 Z"
         id="path334" />
    </clipPath>
  </defs>
  <g
     id="g8"
     transform="matrix(1.3333333,0,0,-1.3333333,-75.590551,673.51181)">
    <path
       d="M 0,0 H 1108.08 V 576 H 0 Z"
       style="fill:#000000;fill-opacity:1;fill-rule:nonzero;stroke:none"
       id="path10" />
    <path
       d="M 51.700781,45.48323 H 1097.6918 V 516.976 H 51.700781 Z"
       style="fill:#1a1a1a;fill-opacity:1;fill-rule:nonzero;stroke:none"
       id="path12" />
    <g
       id="g14">
      <g
         id="g16"
         clip-path="url(#clipPath20)">
        <path
           d="m 51.700781,189.59563 v -82.8228 l 8.716592,-2.93766 8.716591,-20.796961 8.716591,11.676835 8.716592,-8.436878 8.716591,39.282214 8.716592,-3.44099 8.71659,15.79811 8.71659,53.00707 8.71659,-39.36399 8.71659,9.13375 8.7166,16.01544 8.71659,-47.69013 8.71659,28.25363 8.71659,25.67512 8.71659,-13.4681 8.71659,-8.59321 8.7166,34.80074 8.71659,75.01051 8.71659,-70.76735 8.71659,-20.30934 8.71659,-28.12564 8.71659,-21.28686 8.71659,-11.38818 8.71659,26.62894 8.7166,-46.601287 8.71659,16.866967 8.71659,-18.109149 8.71659,-20.879025 8.71659,25.121374 8.71659,8.94837 8.71659,40.81932 8.7166,37.21128 8.71659,-39.80455 8.71659,5.08214 8.71659,-24.83576 8.71659,50.73661 8.71659,25.80853 8.71659,-22.62854 8.7166,3.76456 8.71659,-16.21149 8.71659,51.20505 8.71659,2.50685 8.71659,-23.07651 8.71659,-32.42092 8.71659,-3.51145 8.7166,-9.85488 8.71659,3.46381 8.71659,-67.392514 8.71659,84.917994 8.71659,-46.09122 8.71659,-41.578098 8.71659,-3.250738 8.7166,29.550006 8.71659,-6.60097 8.71659,86.32696 8.71659,-36.31635 8.71659,-27.04294 8.71659,10.86753 8.71659,-0.87103 8.7166,-9.76621 8.71659,41.38537 8.71659,-8.86319 8.71659,-12.80928 8.71659,39.26414 8.71659,-20.4887 8.71659,14.31335 8.71659,19.04207 8.7166,-27.70885 8.71659,-25.53959 8.71659,-3.00474 8.71659,-21.11525 8.71659,1.75323 v 141.32912 0 l -8.71659,-68.09591 -8.71659,32.9894 -8.71659,-27.90053 -8.71659,88.95017 -8.7166,53.61625 -8.71659,45.32216 -8.71659,-61.28651 -8.71659,-22.32992 -8.71659,-38.44871 -8.71659,44.27315 -8.71659,-35.9853 -8.71659,-57.98699 -8.7166,-14.74557 -8.71659,52.75318 -8.71659,2.00956 -8.71659,-5.42627 -8.71659,-12.17668 -8.71659,-28.13081 -8.71659,-56.21846 -8.7166,-30.15866 -8.71659,19.00735 -8.71659,73.33968 -8.71659,23.85378 -8.71659,-24.10672 -8.71659,26.79586 -8.71659,-21.35719 -8.7166,111.68616 -8.71659,-31.65061 -8.71659,60.45191 -8.71659,-89.7989 -8.71659,100.09813 -8.71659,-41.74065 -8.71659,-57.16032 -8.7166,-43.78621 -8.71659,111.76059 -8.71659,-50.48637 -8.71659,-13.02786 -8.71659,-47.2948 -8.71659,37.26102 -8.71659,101.46977 -8.7166,-98.86403 -8.71659,-49.15383 -8.71659,-53.54977 -8.71659,-44.91429 -8.71659,38.65912 -8.71659,109.71558 -8.71659,-111.24676 -8.7166,51.89503 -8.71659,31.68718 -8.71659,-32.87733 -8.71659,29.7448 -8.71659,56.78805 -8.71659,40.24338 -8.71659,51.67596 -8.71659,-51.20183 -8.7166,-85.02815 -8.71659,123.97141 -8.71659,-79.18159 -8.71659,-33.27653 -8.71659,-60.83105 -8.71659,113.03963 -8.7166,-52.57092 -8.71659,-43.88202 -8.71659,77.34636 -8.71659,-21.99983 -8.71659,-82.66315 -8.716592,77.67489 -8.716591,-133.66469 -8.716592,26.50553 -8.716591,-5.51818 -8.716591,3.47457 z"
           style="fill:#d3d3d3;fill-opacity:0.4;fill-rule:nonzero;stroke:#d3d3d3;stroke-width:1;stroke-linecap:butt;stroke-linejoin:round;stroke-miterlimit:10;stroke-dasharray:none;stroke-opacity:0.4"
           id="path22" />
      </g>
    </g>
    <g
       id="g24">
      <g
         id="g26"
         clip-path="url(#clipPath30)">
        <path
           d="m 679.29536,163.99865 v 0 -12.91049 l 8.71659,-11.37218 8.7166,-4.6407 8.71659,5.65375 8.71659,14.17537 8.71659,21.76203 8.71659,14.62833 8.71659,8.59706 8.71659,-3.66875 8.71659,-2.30859 8.7166,-1.24331 8.71659,3.53855 8.71659,7.70645 8.71659,11.62882 8.71659,14.60747 8.71659,13.40485 8.71659,3.6321 8.7166,-5.17718 8.71659,-16.466 8.71659,-17.11636 8.71659,-17.23888 8.71659,-13.53916 8.71659,-14.42181 8.7166,-13.5674 8.71659,-13.76751 8.71659,-12.01163 8.71659,-6.90472 8.71659,4.89366 8.71659,19.6915 8.71659,25.04242 8.7166,17.7236 8.71659,5.69101 8.71659,-4.26608 8.71659,-2.0952 8.71659,0.99365 8.71659,7.36431 8.71659,6.89741 8.71655,13.20364 8.7166,12.03601 8.7166,16.26099 8.7166,6.14256 8.7166,-4.24847 8.7166,-18.78287 8.7166,-21.79323 8.7166,-19.71711 8.7166,-18.24411 8.7166,-18.37101 v 41.98282 0 l -8.7166,17.23172 -8.7166,17.11551 -8.7166,18.59921 -8.7166,20.68603 -8.7166,17.68636 -8.7166,3.16266 -8.7166,-7.21767 -8.7166,-17.3254 -8.7166,-13.08974 -8.71655,-14.24665 -8.71659,-7.92973 -8.71659,-8.38594 -8.71659,-2.00457 -8.71659,1.09498 -8.71659,3.27655 -8.71659,-6.66985 -8.7166,-18.69173 -8.71659,-25.99986 -8.71659,-20.63825 -8.71659,-5.82969 -8.71659,5.97937 -8.71659,11.09698 -8.71659,12.86356 -8.7166,12.67416 -8.71659,13.53925 -8.71659,12.6673 -8.71659,16.37772 -8.71659,16.2659 -8.71659,15.62624 -8.7166,4.34812 -8.71659,-4.45047 -8.71659,-14.21252 -8.71659,-15.40445 -8.71659,-12.41509 -8.71659,-8.48203 -8.71659,-4.30343 -8.7166,0.48912 -8.71659,1.56511 -8.71659,2.93596 -8.71659,-9.31915 -8.71659,-15.33972 -8.71659,-22.46273 -8.71659,-14.86536 -8.71659,-6.33305 -8.7166,3.9721 -8.71659,10.71428 z"
           style="fill:#808080;fill-opacity:0.2;fill-rule:nonzero;stroke:#808080;stroke-width:1;stroke-linecap:butt;stroke-linejoin:round;stroke-miterlimit:10;stroke-dasharray:none;stroke-opacity:0.2"
           id="path32" />
      </g>
    </g>
    <g
       id="g34">
      <g
         id="g36"
         clip-path="url(#clipPath40)">
        <path
           d="M 679.29536,269.3613 V 128.03218 93.59705 l 8.71659,0.89461 8.7166,-2.510212 8.71659,32.845712 8.71659,-7.51792 8.71659,25.64186 8.71659,48.86803 8.71659,-2.64103 8.71659,-31.87564 8.71659,19.41539 8.7166,-18.10012 8.71659,-15.42984 8.71659,7.8501 8.71659,1.93776 8.71659,16.44065 8.71659,8.47334 8.71659,25.2595 8.7166,51.52337 8.71659,-102.76785 8.71659,21.11095 8.71659,-38.20156 8.71659,12.17149 8.71659,12.68915 8.7166,-40.25894 8.71659,-52.50113 8.71659,15.04681 8.71659,20.38164 8.71659,-27.413408 8.71659,24.426947 8.71659,21.334221 8.7166,40.27759 8.71659,20.03696 8.71659,-18.53534 8.71659,-42.86136 8.71659,-9.56646 8.71659,27.06845 8.71659,9.21186 8.71655,-31.73675 8.7166,37.24156 8.7166,14.15471 8.7166,36.99847 8.7166,6.96571 8.7166,-61.16881 8.7166,9.97337 8.7166,-37.5015 8.7166,34.37148 8.7166,-47.40028 v 121.9525 0 l -8.7166,58.24201 -8.7166,-52.73305 -8.7166,60.86728 -8.7166,21.48945 -8.7166,-14.37123 -8.7166,16.32162 -8.7166,17.416 -8.7166,20.93336 -8.7166,-34.93827 -8.71655,50.43799 -8.71659,-130.18043 -8.71659,-3.54855 -8.71659,-44.04248 -8.71659,114.60488 -8.71659,-11.39238 -8.71659,-41.53978 -8.7166,7.67072 -8.71659,-105.57203 -8.71659,4.17713 -8.71659,87.12878 -8.71659,-79.55652 -8.71659,-12.48525 -8.71659,80.87097 -8.7166,-1.89527 -8.71659,51.05022 -8.71659,-57.29906 -8.71659,142.17012 -8.71659,-72.50967 -8.71659,194.05486 -8.7166,-54.22946 -8.71659,-165.13019 -8.71659,105.9111 -8.71659,-72.61075 -8.71659,-19.2149 -8.71659,43.82346 -8.71659,-75.79629 -8.7166,90.16934 -8.71659,21.55014 -8.71659,-87.5602 -8.71659,113.2053 -8.71659,-139.17121 -8.71659,-87.03903 -8.71659,38.60172 -8.71659,-63.47255 -8.7166,9.13044 -8.71659,122.82747 z"
           style="fill:#dda0dd;fill-opacity:0.3;fill-rule:nonzero;stroke:#dda0dd;stroke-width:1;stroke-linecap:butt;stroke-linejoin:round;stroke-miterlimit:10;stroke-dasharray:none;stroke-opacity:0.3"
           id="path42" />
      </g>
    </g>
    <g
       id="g44">
      <g
         id="g46"
         clip-path="url(#clipPath50)">
        <path
           d="M 51.700781,45.48323 V 516.976"
           style="fill:none;stroke:#ffffff;stroke-width:0.8;stroke-linecap:square;stroke-linejoin:round;stroke-miterlimit:10;stroke-dasharray:none;stroke-opacity:0.3"
           id="path52" />
      </g>
    </g>
    <g
       id="g54">
      <path
         d="m 51.700781,45.48323 v -3.5"
         style="fill:#ffffff;fill-opacity:1;fill-rule:nonzero;stroke:#ffffff;stroke-width:0.8;stroke-linecap:butt;stroke-linejoin:round;stroke-miterlimit:10;stroke-dasharray:none;stroke-opacity:1"
         id="path56" />
      <g
         id="g58"
         transform="rotate(45,-0.44978493,42.411628)">
        <text
           xml:space="preserve"
           transform="scale(1,-1)"
           style="font-variant:normal;font-weight:normal;font-size:10px;font-family:'DejaVu Sans';-inkscape-font-specification:DejaVuSans;writing-mode:lr-tb;fill:#ffffff;fill-opacity:1;fill-rule:nonzero;stroke:none"
           id="text62"><tspan
             x="0 6.3600001 12.72 16.09 22.450001"
             y="0"
             id="tspan60">23/06</tspan></text>
      </g>
    </g>
    <g
       id="g64">
      <g
         id="g66"
         clip-path="url(#clipPath70)">
        <path
           d="M 260.89897,45.48323 V 516.976"
           style="fill:none;stroke:#ffffff;stroke-width:0.8;stroke-linecap:square;stroke-linejoin:round;stroke-miterlimit:10;stroke-dasharray:none;stroke-opacity:0.3"
           id="path72" />
      </g>
    </g>
    <g
       id="g74">
      <path
         d="m 260.89897,45.48323 v -3.5"
         style="fill:#ffffff;fill-opacity:1;fill-rule:nonzero;stroke:#ffffff;stroke-width:0.8;stroke-linecap:butt;stroke-linejoin:round;stroke-miterlimit:10;stroke-dasharray:none;stroke-opacity:1"
         id="path76" />
      <g
         id="g78"
         transform="rotate(45,104.14931,294.93619)">
        <text
           xml:space="preserve"
           transform="scale(1,-1)"
           style="font-variant:normal;font-weight:normal;font-size:10px;font-family:'DejaVu Sans';-inkscape-font-specification:DejaVuSans;writing-mode:lr-tb;fill:#ffffff;fill-opacity:1;fill-rule:nonzero;stroke:none"
           id="text82"><tspan
             x="0 6.3600001 12.72 16.09 22.450001"
             y="0"
             id="tspan80">24/06</tspan></text>
      </g>
    </g>
    <g
       id="g84">
      <g
         id="g86"
         clip-path="url(#clipPath90)">
        <path
           d="M 470.09717,45.48323 V 516.976"
           style="fill:none;stroke:#ffffff;stroke-width:0.8;stroke-linecap:square;stroke-linejoin:round;stroke-miterlimit:10;stroke-dasharray:none;stroke-opacity:0.3"
           id="path92" />
      </g>
    </g>
    <g
       id="g94">
      <path
         d="m 470.09717,45.48323 v -3.5"
         style="fill:#ffffff;fill-opacity:1;fill-rule:nonzero;stroke:#ffffff;stroke-width:0.8;stroke-linecap:butt;stroke-linejoin:round;stroke-miterlimit:10;stroke-dasharray:none;stroke-opacity:1"
         id="path96" />
      <g
         id="g98"
         transform="rotate(45,208.74841,547.46074)">
        <text
           xml:space="preserve"
           transform="scale(1,-1)"
           style="font-variant:normal;font-weight:normal;font-size:10px;font-family:'DejaVu Sans';-inkscape-font-specification:DejaVuSans;writing-mode:lr-tb;fill:#ffffff;fill-opacity:1;fill-rule:nonzero;stroke:none"
           id="text102"><tspan
             x="0 6.3600001 12.72 16.09 22.450001"
             y="0"
             id="tspan100">25/06</tspan></text>
      </g>
    </g>
    <g
       id="g104">
      <g
         id="g106"
         clip-path="url(#clipPath110)">
        <path
           d="M 679.29536,45.48323 V 516.976"
           style="fill:none;stroke:#ffffff;stroke-width:0.8;stroke-linecap:square;stroke-linejoin:round;stroke-miterlimit:10;stroke-dasharray:none;stroke-opacity:0.3"
           id="path112" />
      </g>
    </g>
    <g
       id="g114">
      <path
         d="m 679.29536,45.48323 v -3.5"
         style="fill:#ffffff;fill-opacity:1;fill-rule:nonzero;stroke:#ffffff;stroke-width:0.8;stroke-linecap:butt;stroke-linejoin:round;stroke-miterlimit:10;stroke-dasharray:none;stroke-opacity:1"
         id="path116" />
      <g
         id="g118"
         transform="rotate(45,313.37876,799.90986)">
        <text
           xml:space="preserve"
           transform="scale(1,-1)"
           style="font-variant:normal;font-weight:normal;font-size:10px;font-family:'DejaVu Sans';-inkscape-font-specification:DejaVuSans;writing-mode:lr-tb;fill:#ffffff;fill-opacity:1;fill-rule:nonzero;stroke:none"
           id="text122"><tspan
             x="0 4.4225001 10.5425 16.8925 23.022499"
             y="0"
             id="tspan120">Today</tspan></text>
      </g>
    </g>
    <g
       id="g124">
      <g
         id="g126"
         clip-path="url(#clipPath130)">
        <path
           d="M 888.49356,45.48323 V 516.976"
           style="fill:none;stroke:#ffffff;stroke-width:0.8;stroke-linecap:square;stroke-linejoin:round;stroke-miterlimit:10;stroke-dasharray:none;stroke-opacity:0.3"
           id="path132" />
      </g>
    </g>
    <g
       id="g134">
      <path
         d="m 888.49356,45.48323 v -3.5"
         style="fill:#ffffff;fill-opacity:1;fill-rule:nonzero;stroke:#ffffff;stroke-width:0.8;stroke-linecap:butt;stroke-linejoin:round;stroke-miterlimit:10;stroke-dasharray:none;stroke-opacity:1"
         id="path136" />
      <g
         id="g138"
         transform="rotate(45,414.07942,1061.8461)">
        <text
           xml:space="preserve"
           transform="scale(1,-1)"
           style="font-variant:normal;font-weight:normal;font-size:10px;font-family:'DejaVu Sans';-inkscape-font-specification:DejaVuSans;writing-mode:lr-tb;fill:#ffffff;fill-opacity:1;fill-rule:nonzero;stroke:none"
           id="text142"><tspan
             x="0 8.3800001 14.74"
             y="0"
             id="tspan140">+1d</tspan></text>
      </g>
    </g>
    <g
       id="g144">
      <g
         id="g146"
         clip-path="url(#clipPath150)">
        <path
           d="M 51.700781,67.9602 H 1097.6918"
           style="fill:none;stroke:#ffffff;stroke-width:0.8;stroke-linecap:square;stroke-linejoin:round;stroke-miterlimit:10;stroke-dasharray:none;stroke-opacity:0.3"
           id="path152" />
      </g>
    </g>
    <g
       id="g154">
      <path
         d="m 51.700781,67.9602 h -3.5"
         style="fill:#ffffff;fill-opacity:1;fill-rule:nonzero;stroke:#ffffff;stroke-width:0.8;stroke-linecap:butt;stroke-linejoin:round;stroke-miterlimit:10;stroke-dasharray:none;stroke-opacity:1"
         id="path156" />
      <g
         id="g158"
         transform="translate(38.341406,64.163325)">
        <text
           xml:space="preserve"
           transform="scale(1,-1)"
           style="font-variant:normal;font-weight:normal;font-size:10px;font-family:'DejaVu Sans';-inkscape-font-specification:DejaVuSans;writing-mode:lr-tb;fill:#ffffff;fill-opacity:1;fill-rule:nonzero;stroke:none"
           id="text162"><tspan
             x="0"
             y="0"
             id="tspan160">0</tspan></text>
      </g>
    </g>
    <g
       id="g164">
      <g
         id="g166"
         clip-path="url(#clipPath170)">
        <path
           d="M 51.700781,132.14595 H 1097.6918"
           style="fill:none;stroke:#ffffff;stroke-width:0.8;stroke-linecap:square;stroke-linejoin:round;stroke-miterlimit:10;stroke-dasharray:none;stroke-opacity:0.3"
           id="path172" />
      </g>
    </g>
    <g
       id="g174">
      <path
         d="m 51.700781,132.14595 h -3.5"
         style="fill:#ffffff;fill-opacity:1;fill-rule:nonzero;stroke:#ffffff;stroke-width:0.8;stroke-linecap:butt;stroke-linejoin:round;stroke-miterlimit:10;stroke-dasharray:none;stroke-opacity:1"
         id="path176" />
      <g
         id="g178"
         transform="translate(31.982031,128.34907)">
        <text
           xml:space="preserve"
           transform="scale(1,-1)"
           style="font-variant:normal;font-weight:normal;font-size:10px;font-family:'DejaVu Sans';-inkscape-font-specification:DejaVuSans;writing-mode:lr-tb;fill:#ffffff;fill-opacity:1;fill-rule:nonzero;stroke:none"
           id="text182"><tspan
             x="0 6.3600001"
             y="0"
             id="tspan180">25</tspan></text>
      </g>
    </g>
    <g
       id="g184">
      <g
         id="g186"
         clip-path="url(#clipPath190)">
        <path
           d="M 51.700781,196.33169 H 1097.6918"
           style="fill:none;stroke:#ffffff;stroke-width:0.8;stroke-linecap:square;stroke-linejoin:round;stroke-miterlimit:10;stroke-dasharray:none;stroke-opacity:0.3"
           id="path192" />
      </g>
    </g>
    <g
       id="g194">
      <path
         d="m 51.700781,196.33169 h -3.5"
         style="fill:#ffffff;fill-opacity:1;fill-rule:nonzero;stroke:#ffffff;stroke-width:0.8;stroke-linecap:butt;stroke-linejoin:round;stroke-miterlimit:10;stroke-dasharray:none;stroke-opacity:1"
         id="path196" />
      <g
         id="g198"
         transform="translate(31.982031,192.53482)">
        <text
           xml:space="preserve"
           transform="scale(1,-1)"
           style="font-variant:normal;font-weight:normal;font-size:10px;font-family:'DejaVu Sans';-inkscape-font-specification:DejaVuSans;writing-mode:lr-tb;fill:#ffffff;fill-opacity:1;fill-rule:nonzero;stroke:none"
           id="text202"><tspan
             x="0 6.3600001"
             y="0"
             id="tspan200">50</tspan></text>
      </g>
    </g>
    <g
       id="g204">
      <g
         id="g206"
         clip-path="url(#clipPath210)">
        <path
           d="M 51.700781,260.51744 H 1097.6918"
           style="fill:none;stroke:#ffffff;stroke-width:0.8;stroke-linecap:square;stroke-linejoin:round;stroke-miterlimit:10;stroke-dasharray:none;stroke-opacity:0.3"
           id="path212" />
      </g>
    </g>
    <g
       id="g214">
      <path
         d="m 51.700781,260.51744 h -3.5"
         style="fill:#ffffff;fill-opacity:1;fill-rule:nonzero;stroke:#ffffff;stroke-width:0.8;stroke-linecap:butt;stroke-linejoin:round;stroke-miterlimit:10;stroke-dasharray:none;stroke-opacity:1"
         id="path216" />
      <g
         id="g218"
         transform="translate(31.982031,256.72056)">
        <text
           xml:space="preserve"
           transform="scale(1,-1)"
           style="font-variant:normal;font-weight:normal;font-size:10px;font-family:'DejaVu Sans';-inkscape-font-specification:DejaVuSans;writing-mode:lr-tb;fill:#ffffff;fill-opacity:1;fill-rule:nonzero;stroke:none"
           id="text222"><tspan
             x="0 6.3600001"
             y="0"
             id="tspan220">75</tspan></text>
      </g>
    </g>
    <g
       id="g224">
      <g
         id="g226"
         clip-path="url(#clipPath230)">
        <path
           d="M 51.700781,324.70318 H 1097.6918"
           style="fill:none;stroke:#ffffff;stroke-width:0.8;stroke-linecap:square;stroke-linejoin:round;stroke-miterlimit:10;stroke-dasharray:none;stroke-opacity:0.3"
           id="path232" />
      </g>
    </g>
    <g
       id="g234">
      <path
         d="m 51.700781,324.70318 h -3.5"
         style="fill:#ffffff;fill-opacity:1;fill-rule:nonzero;stroke:#ffffff;stroke-width:0.8;stroke-linecap:butt;stroke-linejoin:round;stroke-miterlimit:10;stroke-dasharray:none;stroke-opacity:1"
         id="path236" />
      <g
         id="g238"
         transform="translate(25.622656,320.90631)">
        <text
           xml:space="preserve"
           transform="scale(1,-1)"
           style="font-variant:normal;font-weight:normal;font-size:10px;font-family:'DejaVu Sans';-inkscape-font-specification:DejaVuSans;writing-mode:lr-tb;fill:#ffffff;fill-opacity:1;fill-rule:nonzero;stroke:none"
           id="text242"><tspan
             x="0 6.3600001 12.72"
             y="0"
             id="tspan240">100</tspan></text>
      </g>
    </g>
    <g
       id="g244">
      <g
         id="g246"
         clip-path="url(#clipPath250)">
        <path
           d="M 51.700781,388.88893 H 1097.6918"
           style="fill:none;stroke:#ffffff;stroke-width:0.8;stroke-linecap:square;stroke-linejoin:round;stroke-miterlimit:10;stroke-dasharray:none;stroke-opacity:0.3"
           id="path252" />
      </g>
    </g>
    <g
       id="g254">
      <path
         d="m 51.700781,388.88893 h -3.5"
         style="fill:#ffffff;fill-opacity:1;fill-rule:nonzero;stroke:#ffffff;stroke-width:0.8;stroke-linecap:butt;stroke-linejoin:round;stroke-miterlimit:10;stroke-dasharray:none;stroke-opacity:1"
         id="path256" />
      <g
         id="g258"
         transform="translate(25.622656,385.09206)">
        <text
           xml:space="preserve"
           transform="scale(1,-1)"
           style="font-variant:normal;font-weight:normal;font-size:10px;font-family:'DejaVu Sans';-inkscape-font-specification:DejaVuSans;writing-mode:lr-tb;fill:#ffffff;fill-opacity:1;fill-rule:nonzero;stroke:none"
           id="text262"><tspan
             x="0 6.3600001 12.72"
             y="0"
             id="tspan260">125</tspan></text>
      </g>
    </g>
    <g
       id="g264">
      <g
         id="g266"
         clip-path="url(#clipPath270)">
        <path
           d="M 51.700781,453.07468 H 1097.6918"
           style="fill:none;stroke:#ffffff;stroke-width:0.8;stroke-linecap:square;stroke-linejoin:round;stroke-miterlimit:10;stroke-dasharray:none;stroke-opacity:0.3"
           id="path272" />
      </g>
    </g>
    <g
       id="g274">
      <path
         d="m 51.700781,453.07468 h -3.5"
         style="fill:#ffffff;fill-opacity:1;fill-rule:nonzero;stroke:#ffffff;stroke-width:0.8;stroke-linecap:butt;stroke-linejoin:round;stroke-miterlimit:10;stroke-dasharray:none;stroke-opacity:1"
         id="path276" />
      <g
         id="g278"
         transform="translate(25.622656,449.2778)">
        <text
           xml:space="preserve"
           transform="scale(1,-1)"
           style="font-variant:normal;font-weight:normal;font-size:10px;font-family:'DejaVu Sans';-inkscape-font-specification:DejaVuSans;writing-mode:lr-tb;fill:#ffffff;fill-opacity:1;fill-rule:nonzero;stroke:none"
           id="text282"><tspan
             x="0 6.3600001 12.72"
             y="0"
             id="tspan280">150</tspan></text>
      </g>
      <g
         id="g284"
         transform="rotate(90,-105.80348,124.92614)">
        <text
           xml:space="preserve"
           transform="scale(1,-1)"
           style="font-variant:normal;font-weight:normal;font-size:12px;font-family:'DejaVu Sans';-inkscape-font-specification:DejaVuSans;writing-mode:lr-tb;fill:#ffffff;fill-opacity:1;fill-rule:nonzero;stroke:none"
           id="text288"><tspan
             x="0 7.0328751 11.964875 15.300875 21.900875 29.280874 33.096874 37.776875 45.360874 54.144875 62.484875 66.528877 76.884872 88.752876 96.360878"
             y="0"
             id="tspan286">Price (EUR/MWh)</tspan></text>
      </g>
    </g>
    <g
       id="g290">
      <g
         id="g292"
         clip-path="url(#clipPath296)">
        <path
           d="m 51.700781,154.07852 8.716592,-16.55467 8.716591,-6.88611 8.716591,-5.67521 8.716592,4.61081 8.716591,11.67535 8.716592,19.30491 8.71659,12.80189 8.71659,7.34609 8.71659,-0.31711 8.71659,-1.42652 8.7166,0.72738 8.71659,5.99714 8.71659,8.48644 8.71659,12.83914 8.71659,10.2149 8.71659,12.70629 8.7166,4.62881 8.71659,-3.68363 8.71659,-13.72963 8.71659,-16.5997 8.71659,-15.09243 8.71659,-13.75492 8.71659,-14.00454 8.71659,-14.12882 8.7166,-11.44901 8.71659,-9.69087 8.71659,-3.8802 8.71659,1.57578 8.71659,12.29394 8.71659,19.43854 8.71659,16.26466 8.7166,8.68064 8.71659,-1.52616 8.71659,-2.01914 8.71659,-0.974 8.71659,3.54572 8.71659,6.54479 8.71659,12.72236 8.7166,13.52228 8.71659,12.01162 8.71659,4.35397 8.71659,-4.62249 8.71659,-13.2328 8.71659,-15.1878 8.71659,-13.75951 8.7166,-7.80828 8.71659,-7.77214 8.71659,-5.791 8.71659,-6.93517 8.71659,-6.98015 8.71659,-4.53117 8.71659,4.68907 8.7166,15.72806 8.71659,26.4104 8.71659,20.08605 8.71659,10.45381 8.71659,-1.60799 8.71659,-2.29539 8.71659,0.45663 8.7166,5.05904 8.71659,10.22338 8.71659,14.02883 8.71659,17.04139 8.71659,12.29073 8.71659,6.74729 8.71659,-6.83922 8.71659,-15.89378 8.7166,-20.51205 8.71659,-21.58423 8.71659,-18.21099 8.71659,-16.58976 8.71659,-14.04141"
           style="fill:none;stroke:#e0e0e0;stroke-width:2.5;stroke-linecap:square;stroke-linejoin:round;stroke-miterlimit:10;stroke-dasharray:none;stroke-opacity:0.9"
           id="path298" />
      </g>
    </g>
    <g
       id="g300">
      <g
         id="g302"
         clip-path="url(#clipPath306)">
        <path
           d="m 51.700781,116.95918 8.716592,20.42085 8.716591,-30.92966 8.716591,26.41159 8.716592,-33.746644 8.716591,55.854104 8.716592,-9.41092 8.71659,35.14692 8.71659,48.99844 8.71659,-54.82759 8.71659,17.11601 8.7166,14.47379 8.71659,-52.16249 8.71659,44.51136 8.71659,11.81529 8.71659,26.12494 8.71659,-23.49247 8.7166,11.12199 8.71659,50.67897 8.71659,-30.29479 8.71659,-26.62921 8.71659,-23.70343 8.71659,-33.92033 8.71659,5.90054 8.71659,-14.93829 8.7166,-33.78582 8.71659,45.13801 8.71659,-33.82726 8.71659,-39.438525 8.71659,43.191505 8.71659,5.77702 8.71659,62.37347 8.7166,33.81842 8.71659,-53.74715 8.71659,23.54966 8.71659,-19.16525 8.71659,16.2627 8.71659,29.93075 8.71659,-33.52409 8.7166,5.27149 8.71659,15.54264 8.71659,14.60773 8.71659,28.26656 8.71659,-17.59709 8.71659,-27.51178 8.71659,-14.88098 8.7166,-29.81672 8.71659,16.49383 8.71659,-40.79048 8.71659,47.95602 8.71659,-51.03027 8.71659,-35.79665 8.71659,-9.73025 8.7166,37.2455 8.71659,25.55239 8.71659,45.95624 8.71659,21.75614 8.71659,-24.56654 8.71659,-29.24744 8.71659,-21.73182 8.7166,29.95332 8.71659,34.7715 8.71659,-2.51207 8.71659,-13.96338 8.71659,47.8347 8.71659,17.7078 8.71659,-12.7175 8.71659,-5.38991 8.7166,-28.66312 8.71659,-51.37282 8.71659,17.47409 8.71659,-9.18119 8.71659,5.65902"
           style="fill:none;stroke:#b0b0b0;stroke-width:2;stroke-linecap:square;stroke-linejoin:round;stroke-miterlimit:10;stroke-dasharray:none;stroke-opacity:0.9"
           id="path308" />
      </g>
    </g>
    <g
       id="g310">
      <g
         id="g312"
         clip-path="url(#clipPath316)">
        <path
           d="m 679.29536,163.99865 v -12.58688 l 8.71659,-11.04323 8.7166,-4.3064 8.71659,5.99339 8.71659,14.52037 8.71659,22.11238 8.71659,14.98403 8.71659,8.9581 8.71659,-3.30236 8.71659,-1.93684 8.7166,-0.86622 8.71659,3.92099 8.71659,8.09424 8.71659,12.02195 8.71659,15.00596 8.71659,13.80869 8.71659,4.04128 8.7166,-4.76265 8.71659,-16.04612 8.71659,-16.69113 8.71659,-16.8083 8.71659,-13.10322 8.71659,-13.98054 8.7166,-13.12078 8.71659,-13.31553 8.71659,-11.55431 8.71659,-6.44204 8.71659,5.36167 8.71659,20.16488 8.71659,25.52114 8.7166,18.20766 8.71659,6.18044 8.71659,-3.77132 8.71659,-1.59509 8.71659,1.49911 8.71659,7.87513 8.71659,7.41357 8.71655,13.72514 8.7166,12.56288 8.7166,16.79319 8.7166,6.68012 8.7166,-3.70557 8.7166,-18.23462 8.7166,-21.23962 8.7166,-19.15817 8.7166,-17.67981 8.7166,-17.80136"
           style="fill:none;stroke:#ffa500;stroke-width:2.5;stroke-linecap:butt;stroke-linejoin:round;stroke-miterlimit:10;stroke-dasharray:9.25, 4;stroke-dashoffset:0;stroke-opacity:0.8"
           id="path318" />
      </g>
    </g>
    <g
       id="g320">
      <g
         id="g322"
         clip-path="url(#clipPath326)">
        <path
           d="m 679.29536,183.58055 v -14.20814 l 8.71659,-58.10548 8.7166,3.5912 8.71659,24.39798 8.71659,5.41729 8.71659,40.84805 8.71659,95.76891 8.71659,-40.19241 8.71659,-2.00927 8.71659,-17.3366 8.7166,-14.37988 8.71659,-11.69023 8.71659,30.22868 8.71659,-20.5763 8.71659,27.33813 8.71659,13.94536 8.71659,25.25812 8.7166,59.46752 8.71659,-113.10913 8.71659,25.23323 8.71659,-74.43444 8.71659,9.82369 8.71659,18.45227 8.7166,-46.64741 8.71659,-37.32067 8.71659,-0.87414 8.71659,23.10484 8.71659,-34.50552 8.71659,24.99291 8.71659,38.08244 8.7166,13.40872 8.71659,85.14715 8.71659,-44.87918 8.71659,-68.47976 8.71659,37.10649 8.71659,-9.10392 8.71659,39.4197 8.71655,-22.69514 8.7166,30.55826 8.7166,32.13854 8.7166,21.2741 8.7166,-28.57142 8.7166,-9.9453 8.7166,-30.61288 8.7166,-31.39215 8.7166,35.81633 8.7166,-41.80746"
           style="fill:none;stroke:#8a2be2;stroke-width:2;stroke-linecap:butt;stroke-linejoin:round;stroke-miterlimit:10;stroke-dasharray:7.4, 3.2;stroke-dashoffset:0;stroke-opacity:0.8"
           id="path328" />
      </g>
    </g>
    <g
       id="g330">
      <g
         id="g332"
         clip-path="url(#clipPath336)">
        <path
           d="M 679.29536,45.48323 V 516.976"
           style="fill:none;stroke:#00bfff;stroke-width:3;stroke-linecap:butt;stroke-linejoin:round;stroke-miterlimit:10;stroke-dasharray:11.1, 4.8;stroke-dashoffset:0;stroke-opacity:0.8"
           id="path338" />
      </g>
    </g>
    <g
       id="g340">
      <g
         id="g342"
         transform="translate(696.72855,472.07442)">
        <text
           xml:space="preserve"
           transform="scale(1,-1)"
           style="font-variant:normal;font-weight:bold;font-size:12px;font-family:'DejaVu Sans';-inkscape-font-specification:DejaVuSans-Bold;writing-mode:lr-tb;fill:#00bfff;fill-opacity:1;fill-rule:nonzero;stroke:none"
           id="text346"><tspan
             x="0 6.59025 14.83425 23.42625 31.166876"
             y="0"
             id="tspan344">Today</tspan></text>
      </g>
      <g
         id="g348"
         transform="translate(396.07908,555.01662)">
        <text
           xml:space="preserve"
           transform="scale(1,-1)"
           style="font-variant:normal;font-weight:bold;font-size:16px;font-family:'DejaVu Sans';-inkscape-font-specification:DejaVuSans-Bold;writing-mode:lr-tb;fill:#ffffff;fill-opacity:1;fill-rule:nonzero;stroke:none"
           id="text352"><tspan
             x="0 11.52 22.912001 33.903999 41.792 49.439999 56.080002 63.728001 74.575996 82.463997 99.136002 104.704 115.632 121.12 131.968 141.45599 149.104 156.992 162.48 171.968 177.45599 185.104 195.536 201.104 217.024 227.82401 235.71201 245.93013 256.77814 264.42612 269.99411 280.28149 291.2735 299.1615 310.00949 319.4975 330.29749 339.8175 347.46552"
             y="0"
             id="tspan350">Short-term Electricity Market Forecasts</tspan></text>
      </g>
      <g
         id="g354"
         transform="translate(435.30564,536.976)">
        <text
           xml:space="preserve"
           transform="scale(1,-1)"
           style="font-variant:normal;font-weight:bold;font-size:16px;font-family:'DejaVu Sans';-inkscape-font-specification:DejaVuSans-Bold;writing-mode:lr-tb;fill:#ffffff;fill-opacity:1;fill-rule:nonzero;stroke:none"
           id="text358"><tspan
             x="0 5.9520001 17.344 24.992001 32.880001 43.68 55.136002 65.451622 75.883621 81.451622 92.251625 103.64362 115.09962 120.66763 133.94763 144.26324 154.69525 161.33525 173.71925 185.11125 195.95924 206.75925 218.21526 223.78325 235.51125 243.39925 248.88725 258.37524 269.22324"
             y="0"
             id="tspan356">Intraday and Day-Ahead Prices</tspan></text>
      </g>
    </g>
  </g>
</svg>
